<svg id="favicon" xmlns="http://www.w3.org/2000/svg" width="180" height="180" viewBox="0 0 180 180">
  <rect id="Rectangle_2352" data-name="Rectangle 2352" width="180" height="180" fill="#fff"/>
  <g id="Group_1893" data-name="Group 1893" transform="translate(-7.757 -39.829)">
    <path id="Path_8012" data-name="Path 8012" d="M49.761,39.661,79.108,10.314,99.522,30.727V0H0V30.727L20.413,10.314Z" transform="translate(48 64.453)" fill="#6c1d45"/>
    <path id="Path_8013" data-name="Path 8013" d="M30.784,126.886a215.929,215.929,0,0,0,22.068,18.239A176.278,176.278,0,0,0,74.844,126.81L52.852,104.818Z" transform="translate(44.909 53.929)" fill="#d6a461"/>
    <path id="Path_8014" data-name="Path 8014" d="M49.774,71.177h0L20.426,41.829l-20.3,20.3a84.282,84.282,0,0,0,14.853,43.844L49.774,71.178l34.752,34.752A82.994,82.994,0,0,0,94.666,86.24a84.532,84.532,0,0,0,4.756-24.111l-20.3-20.3Z" transform="translate(47.988 60.253)" fill="#b77729"/>
  </g>
</svg>
