<svg xmlns="http://www.w3.org/2000/svg" xmlns:xlink="http://www.w3.org/1999/xlink" width="266" height="215" viewBox="0 0 266 215">
  <defs>
    <clipPath id="clip-path">
      <path id="Path_7744" data-name="Path 7744" d="M5,0H261a5,5,0,0,1,5,5V210a5,5,0,0,1-5,5H5a5,5,0,0,1-5-5V5A5,5,0,0,1,5,0Z" transform="translate(967 354)" fill="#fff" stroke="#d4d4d4" stroke-width="1"/>
    </clipPath>
  </defs>
  <g id="bg" transform="translate(-967 -354)" clip-path="url(#clip-path)">
    <g id="Group_256" data-name="Group 256" transform="translate(623.262 377.978)">
      <path id="Path_7652" data-name="Path 7652" d="M48.206,0,0,48.212,15.312,63.518,48.206,30.624,81.1,63.518,96.412,48.212Z" fill="#f6f6f6"/>
      <path id="Path_7653" data-name="Path 7653" d="M158.376,0,110.17,48.212l15.306,15.306,32.9-32.894,32.912,32.894L206.6,48.212Z" transform="translate(-44.376)" fill="#f6f6f6"/>
      <path id="Path_7654" data-name="Path 7654" d="M55.09,154.576,70.4,169.882l32.894-32.894,32.9,32.894L151.5,154.576,103.29,106.37Z" transform="translate(-22.19 -42.846)" fill="#f6f6f6"/>
      <path id="Path_7655" data-name="Path 7655" d="M268.266,0,220.06,48.212l15.312,15.306,32.894-32.894,32.9,32.894,15.306-15.306Z" transform="translate(-88.64)" fill="#f6f6f6"/>
      <path id="Path_7656" data-name="Path 7656" d="M378.466,0,330.229,48.212l15.313,15.306,32.924-32.894,32.846,32.894,15.306-15.306Z" transform="translate(-133.016)" fill="#f6f6f6"/>
      <path id="Path_7657" data-name="Path 7657" d="M275.2,154.576l15.306,15.306,32.87-32.894L356.3,169.882l15.312-15.306L323.406,106.37Z" transform="translate(-110.85 -42.846)" fill="#f6f6f6"/>
      <path id="Path_7658" data-name="Path 7658" d="M488.326,0,440.12,48.212l15.312,15.306,32.894-32.894,32.9,32.894,15.306-15.306Z" transform="translate(-177.28)" fill="#f6f6f6"/>
      <path id="Path_7659" data-name="Path 7659" d="M598.49,0l-48.2,48.212L565.6,63.518,598.49,30.624l32.9,32.894L646.7,48.212Z" transform="translate(-221.656)" fill="#f6f6f6"/>
      <path id="Path_7660" data-name="Path 7660" d="M495.2,154.576l15.306,15.306,32.906-32.894L576.3,169.882l15.312-15.306L543.406,106.37Z" transform="translate(-199.466 -42.846)" fill="#f6f6f6"/>
      <path id="Path_7661" data-name="Path 7661" d="M708.4,0,660.19,48.212,675.5,63.518l32.9-32.894,32.9,32.894,15.312-15.306Z" transform="translate(-265.924)" fill="#f6f6f6"/>
      <path id="Path_7662" data-name="Path 7662" d="M818.566,0,770.361,48.212l15.312,15.306,32.894-32.894L851.46,63.518l15.312-15.306Z" transform="translate(-310.3)" fill="#f6f6f6"/>
      <path id="Path_7663" data-name="Path 7663" d="M715.28,154.576l15.312,15.306,32.894-32.894,32.9,32.894,15.305-15.306L763.486,106.37Z" transform="translate(-288.114 -42.846)" fill="#f6f6f6"/>
      <path id="Path_7664" data-name="Path 7664" d="M928.474,0,880.25,48.212l15.306,15.306,32.918-32.894,32.894,32.894L976.68,48.212Z" transform="translate(-354.564)" fill="#f6f6f6"/>
      <path id="Path_7665" data-name="Path 7665" d="M1038.626,0,990.42,48.212l15.306,15.306,32.9-32.894,32.893,32.894,15.313-15.306Z" transform="translate(-398.94)" fill="#f6f6f6"/>
      <path id="Path_7666" data-name="Path 7666" d="M935.34,154.576l15.325,15.306,32.881-32.894,32.894,32.894,15.311-15.306L983.546,106.37Z" transform="translate(-376.754 -42.846)" fill="#f6f6f6"/>
      <path id="Path_7667" data-name="Path 7667" d="M1148.485,0,1100.28,48.206l15.36,15.312,32.846-32.894,32.9,32.894,15.306-15.306Z" transform="translate(-443.192)" fill="#f6f6f6"/>
      <path id="Path_7668" data-name="Path 7668" d="M1258.686,0,1210.48,48.206l15.313,15.306,32.894-32.888,32.9,32.894,15.306-15.306Z" transform="translate(-487.58)" fill="#f6f6f6"/>
      <path id="Path_7669" data-name="Path 7669" d="M1155.4,154.576l15.289,15.306,32.917-32.894,32.894,32.894,15.311-15.306-48.206-48.206Z" transform="translate(-465.394 -42.846)" fill="#f6f6f6"/>
      <path id="Path_7670" data-name="Path 7670" d="M1368.576,0,1320.37,48.206l15.306,15.312,32.9-32.894,32.9,32.894,15.306-15.306Z" transform="translate(-531.844)" fill="#f6f6f6"/>
      <path id="Path_7671" data-name="Path 7671" d="M1478.746,0,1430.54,48.206l15.313,15.306,32.9-32.888,32.895,32.894,15.318-15.306Z" transform="translate(-576.22)" fill="#f6f6f6"/>
      <path id="Path_7672" data-name="Path 7672" d="M1375.46,154.576l15.312,15.306,32.893-32.894,32.9,32.894,15.307-15.306-48.207-48.206Z" transform="translate(-554.034 -42.846)" fill="#f6f6f6"/>
    </g>
  </g>
</svg>
