<svg id="facebook" xmlns="http://www.w3.org/2000/svg" width="12.637" height="22.018" viewBox="0 0 12.637 22.018">
  <path id="Path_167" data-name="Path 167" d="M34.238,0,31.207,0C27.8,0,25.6,2.127,25.6,5.419v2.5H22.554a.463.463,0,0,0-.477.449v3.62a.463.463,0,0,0,.477.449H25.6v9.134a.463.463,0,0,0,.477.449h3.976a.463.463,0,0,0,.477-.449V12.435h3.563a.463.463,0,0,0,.477-.449V8.366a.437.437,0,0,0-.14-.317.492.492,0,0,0-.337-.132H30.531V5.8c0-1.018.258-1.535,1.665-1.535h2.042a.463.463,0,0,0,.476-.449V.454A.464.464,0,0,0,34.238,0Z" transform="translate(-22.077)"/>
</svg>
