<svg id="ikona_newsletter" xmlns="http://www.w3.org/2000/svg" xmlns:xlink="http://www.w3.org/1999/xlink" width="651.654" height="357.646" viewBox="0 0 651.654 357.646">
  <defs>
    <clipPath id="clip-path">
      <rect id="Rectangle_113" data-name="Rectangle 113" width="651.654" height="357.646" fill="none"/>
    </clipPath>
  </defs>
  <path id="Path_7569" data-name="Path 7569" d="M304.89,124.377l-34.441,34.441v0l34.637,34.636h.007l34.435-34.434v-.007Z" transform="translate(185.082 107.637)" fill="#5b1d3c"/>
  <path id="Path_7570" data-name="Path 7570" d="M356.529,124.52l-34.44,34.44,34.639,34.64,34.44-34.439h0Z" transform="translate(202.514 107.686)" fill="#5b1d3c"/>
  <path id="Path_7571" data-name="Path 7571" d="M105.422,67.324l-70.4,70.4,22.354,22.363,48.045-48.045,48.046,48.045,22.353-22.363Z" transform="translate(47.949 52.628)" fill="#5b1d3c"/>
  <path id="Path_7572" data-name="Path 7572" d="M70.4,0,0,70.4,22.356,92.762,70.4,44.716l48.045,48.046L140.8,70.4,70.4,0Z" transform="translate(34.716 27.189)" fill="#5b1d3c"/>
  <path id="Path_7573" data-name="Path 7573" d="M140.136,0l-70.4,70.4L92.092,92.762l48.046-48.046,48.043,48.046L210.538,70.4,140.141,0Z" transform="translate(61.068 27.189)" fill="#5b1d3c"/>
  <rect id="Rectangle_111" data-name="Rectangle 111" width="94.17" height="5.115" transform="translate(309.339 345.564)" fill="#5b1d3c"/>
  <rect id="Rectangle_112" data-name="Rectangle 112" width="94.17" height="5.121" transform="translate(368.361 322.483)" fill="#5b1d3c"/>
  <g id="Group_233" data-name="Group 233">
    <g id="Group_232" data-name="Group 232" clip-path="url(#clip-path)">
      <g id="Group_258" data-name="Group 258">
        <path id="Path_7574" data-name="Path 7574" d="M138.7,99.512l90.62,71.837a14.957,14.957,0,0,0,18.241,0l90.619-70.929" transform="translate(98.507 70.677)" fill="none" stroke="#cc852e" stroke-linecap="round" stroke-width="4"/>
        <line id="Line_32" data-name="Line 32" x1="41.531" y2="33.428" transform="translate(237.935 222.792)" fill="none" stroke="#cc852e" stroke-linecap="round" stroke-width="4"/>
        <line id="Line_33" data-name="Line 33" x2="41.531" y2="33.428" transform="translate(394.422 222.792)" fill="none" stroke="#cc852e" stroke-linecap="round" stroke-width="4"/>
        <path id="Path_7575" data-name="Path 7575" d="M323.912,74.088,356.251,99.4a17.1,17.1,0,0,1,6.559,13.46l.009,106.638a22.364,22.364,0,0,1-22.363,22.365H150.881A22.365,22.365,0,0,1,128.516,219.5V113.856a17.079,17.079,0,0,1,6.477-13.388l32.431-25.71" transform="translate(91.276 52.62)" fill="none" stroke="#cc852e" stroke-linecap="round" stroke-width="4"/>
        <line id="Line_34" data-name="Line 34" x2="105.106" transform="translate(284.391 108.611)" fill="none" stroke="#cc852e" stroke-linecap="round" stroke-width="4"/>
        <path id="Path_7576" data-name="Path 7576" d="M151.7,162.45V68.115a1.715,1.715,0,0,1,.5-1.213l33.361-33.363a1.714,1.714,0,0,1,1.213-.5H301.06a5.649,5.649,0,0,1,5.649,5.649V163.136" transform="translate(107.741 23.465)" fill="none" stroke="#cc852e" stroke-linecap="round" stroke-width="4"/>
        <path id="Path_7577" data-name="Path 7577" d="M151.7,67.405h26.815a7.615,7.615,0,0,0,7.614-7.614V33.038" transform="translate(107.741 23.465)" fill="none" stroke="#cc852e" stroke-linecap="round" stroke-width="4"/>
        <line id="Line_35" data-name="Line 35" x2="105.106" transform="translate(284.391 132.042)" fill="none" stroke="#cc852e" stroke-linecap="round" stroke-width="4"/>
        <line id="Line_36" data-name="Line 36" x2="105.106" transform="translate(284.391 155.472)" fill="none" stroke="#cc852e" stroke-linecap="round" stroke-width="4"/>
        <line id="Line_37" data-name="Line 37" x2="67.033" transform="translate(284.391 178.902)" fill="none" stroke="#cc852e" stroke-linecap="round" stroke-width="4"/>
      </g>
    </g>
  </g>
</svg>
