<svg id="indywidualne_podejscie" xmlns="http://www.w3.org/2000/svg" xmlns:xlink="http://www.w3.org/1999/xlink" width="142.795" height="104.38" viewBox="0 0 142.795 104.38">
  <defs>
    <clipPath id="clip-path">
      <rect id="Rectangle_169" data-name="Rectangle 169" width="142.795" height="104.38" fill="none"/>
    </clipPath>
    <clipPath id="clip-path-2">
      <rect id="Rectangle_165" data-name="Rectangle 165" width="142.795" height="104.38" transform="translate(0 0)" fill="none"/>
    </clipPath>
    <clipPath id="clip-path-3">
      <rect id="Rectangle_162" data-name="Rectangle 162" width="22.756" height="45.385" transform="translate(120.039 29.591)" fill="none"/>
    </clipPath>
    <clipPath id="clip-path-4">
      <rect id="Rectangle_159" data-name="Rectangle 159" width="22.694" height="22.694" transform="translate(120.101 29.591)" fill="none"/>
    </clipPath>
    <clipPath id="clip-path-5">
      <rect id="Rectangle_161" data-name="Rectangle 161" width="22.694" height="22.694" transform="translate(120.039 52.282)" fill="none"/>
    </clipPath>
    <clipPath id="clip-path-6">
      <rect id="Rectangle_163" data-name="Rectangle 163" width="44.905" height="29.583" transform="translate(15.389 29.583)" fill="none"/>
    </clipPath>
    <clipPath id="clip-path-7">
      <rect id="Rectangle_164" data-name="Rectangle 164" width="75.548" height="29.583" transform="translate(0 0)" fill="none"/>
    </clipPath>
    <clipPath id="clip-path-8">
      <rect id="Rectangle_168" data-name="Rectangle 168" width="95.118" height="91.747" transform="translate(22.525 10.732)" fill="none"/>
    </clipPath>
  </defs>
  <g id="Group_344" data-name="Group 344" clip-path="url(#clip-path)">
    <g id="Group_341" data-name="Group 341">
      <g id="Group_340" data-name="Group 340" clip-path="url(#clip-path-2)">
        <g id="Group_333" data-name="Group 333" opacity="0.7">
          <g id="Group_332" data-name="Group 332">
            <g id="Group_331" data-name="Group 331" clip-path="url(#clip-path-3)">
              <g id="Group_327" data-name="Group 327" opacity="0.4">
                <g id="Group_326" data-name="Group 326">
                  <g id="Group_325" data-name="Group 325" clip-path="url(#clip-path-4)">
                    <rect id="Rectangle_158" data-name="Rectangle 158" width="16.093" height="16.001" transform="translate(120.101 40.971) rotate(-45)" fill="#561436"/>
                  </g>
                </g>
              </g>
              <g id="Group_330" data-name="Group 330" opacity="0.4">
                <g id="Group_329" data-name="Group 329">
                  <g id="Group_328" data-name="Group 328" clip-path="url(#clip-path-5)">
                    <rect id="Rectangle_160" data-name="Rectangle 160" width="16.093" height="16.001" transform="translate(120.038 63.662) rotate(-45)" fill="#561436"/>
                  </g>
                </g>
              </g>
            </g>
          </g>
        </g>
        <g id="Group_336" data-name="Group 336" opacity="0.4">
          <g id="Group_335" data-name="Group 335">
            <g id="Group_334" data-name="Group 334" clip-path="url(#clip-path-6)">
              <path id="Path_7770" data-name="Path 7770" d="M37.841,43.844,53.163,59.166l7.13-7.131L37.841,29.583,15.389,52.035l7.13,7.131Z" fill="#d1934c"/>
            </g>
          </g>
        </g>
        <g id="Group_339" data-name="Group 339" opacity="0.4">
          <g id="Group_338" data-name="Group 338">
            <g id="Group_337" data-name="Group 337" clip-path="url(#clip-path-7)">
              <path id="Path_7771" data-name="Path 7771" d="M22.452,14.261,37.774,29.583l7.13-7.131L22.452,0,0,22.452l7.13,7.131Z" fill="#d1934c"/>
              <path id="Path_7772" data-name="Path 7772" d="M53.1,14.261,68.418,29.583l7.13-7.131L53.1,0,30.644,22.452l7.13,7.131Z" fill="#d1934c"/>
            </g>
          </g>
        </g>
      </g>
    </g>
    <rect id="Rectangle_166" data-name="Rectangle 166" width="42.01" height="2.284" transform="translate(58.147 102.096)" fill="#ab621a"/>
    <rect id="Rectangle_167" data-name="Rectangle 167" width="42.01" height="2.284" transform="translate(88.849 90.603)" fill="#ab621a"/>
    <path id="Path_7773" data-name="Path 7773" d="M23.885,88.4,37.292,74.987l10.517,2.2L34.4,90.6Z" fill="#ab621a"/>
    <path id="Path_7774" data-name="Path 7774" d="M36.6,101.119,50.017,87.707l-2.2-10.516L34.4,90.6Z" fill="#ab621a"/>
    <g id="Group_343" data-name="Group 343">
      <g id="Group_342" data-name="Group 342" clip-path="url(#clip-path-8)">
        <path id="Path_7775" data-name="Path 7775" d="M58.146,58.829A40.523,40.523,0,0,1,56.695,12.2" fill="none" stroke="#561436" stroke-linecap="round" stroke-linejoin="round" stroke-width="2"/>
        <path id="Path_7776" data-name="Path 7776" d="M116.284,65.74a40.512,40.512,0,0,1-50.042,1.17" fill="none" stroke="#561436" stroke-linecap="round" stroke-linejoin="round" stroke-width="2"/>
        <path id="Path_7777" data-name="Path 7777" d="M70.529,46.8a23.491,23.491,0,0,1,12.92-34.709" fill="none" stroke="#561436" stroke-linecap="round" stroke-linejoin="round" stroke-width="2"/>
        <path id="Path_7778" data-name="Path 7778" d="M97.914,12.195A23.482,23.482,0,1,1,78.084,54.4" fill="none" stroke="#561436" stroke-linecap="round" stroke-linejoin="round" stroke-width="2"/>
        <path id="Path_7779" data-name="Path 7779" d="M90.521,24.649a9.835,9.835,0,1,1-9.837,9.836A9.836,9.836,0,0,1,90.521,24.649Z" fill="none" stroke="#561436" stroke-linecap="round" stroke-linejoin="round" stroke-width="2"/>
        <path id="Path_7780" data-name="Path 7780" d="M94.1,34.484a3.579,3.579,0,1,1-3.579-3.579A3.579,3.579,0,0,1,94.1,34.484" fill="#ab621a"/>
        <path id="Path_7781" data-name="Path 7781" d="M94.1,34.484a3.579,3.579,0,1,1-3.579-3.579A3.579,3.579,0,0,1,94.1,34.484" fill="none" stroke="#ab621a" stroke-linecap="round" stroke-linejoin="round" stroke-width="2.266"/>
      </g>
    </g>
    <line id="Line_41" data-name="Line 41" x1="56.119" y2="56.119" transform="translate(34.402 34.484)" fill="none" stroke="#ab621a" stroke-linecap="round" stroke-linejoin="round" stroke-width="2"/>
  </g>
</svg>
