<svg xmlns="http://www.w3.org/2000/svg" width="21.714" height="22.018" viewBox="0 0 21.714 22.018">
  <path id="Instagram" d="M40.815,22.506H25.928a3.439,3.439,0,0,0-3.414,3.464V41.063a3.439,3.439,0,0,0,3.414,3.461H40.815a3.439,3.439,0,0,0,3.414-3.461V25.97A3.439,3.439,0,0,0,40.815,22.506Zm-2.309,2.547,2.728-.007h.006a.474.474,0,0,1,.475.475V28.3a.474.474,0,0,1-.472.479l-2.725.01a.473.473,0,0,1-.472-.475l-.01-2.776A.474.474,0,0,1,38.506,25.053Zm-8.463,6.571a4.329,4.329,0,0,1,.23-.367,3.779,3.779,0,0,1,6.2,0,4.031,4.031,0,0,1,.724,2.258,3.823,3.823,0,1,1-7.151-1.891ZM42.114,40.27a2.1,2.1,0,0,1-2.082,2.111H26.71a2.1,2.1,0,0,1-2.082-2.111V31.257h3.242a5.8,5.8,0,0,0-.21.619,5.95,5.95,0,1,0,11.648,1.639,6.093,6.093,0,0,0-.226-1.639c-.061-.21-.129-.42-.21-.619h3.242Z" transform="translate(-22.514 -22.506)"/>
</svg>
