<svg id="Linkedin" xmlns="http://www.w3.org/2000/svg" width="22.921" height="22.018" viewBox="0 0 22.921 22.018">
  <g id="Group_40" data-name="Group 40" transform="translate(0 0)">
    <path id="Path_172" data-name="Path 172" d="M49.989,37.467v8.52H45.075V38.038c0-2-.709-3.359-2.489-3.359a2.689,2.689,0,0,0-2.521,1.806,3.4,3.4,0,0,0-.163,1.2v8.3H34.989s.066-13.463,0-14.856H39.9v2.105c-.01.017-.024.033-.033.049H39.9v-.049a4.875,4.875,0,0,1,4.429-2.454c3.233,0,5.657,2.123,5.657,6.686Zm-20.141-13.5a2.573,2.573,0,1,0-.064,5.134h.032a2.574,2.574,0,1,0,.033-5.134ZM27.36,45.987h4.912V31.13H27.36Z" transform="translate(-27.068 -23.969)"/>
  </g>
</svg>
