<svg id="logo" xmlns="http://www.w3.org/2000/svg" xmlns:xlink="http://www.w3.org/1999/xlink" width="172.661" height="91.094" viewBox="0 0 172.661 91.094">
  <defs>
    <clipPath id="clip-path">
      <rect id="Rectangle_2348" data-name="Rectangle 2348" width="172.661" height="91.094" fill="none"/>
    </clipPath>
  </defs>
  <g id="Group_1889" data-name="Group 1889" clip-path="url(#clip-path)">
    <path id="Path_7870" data-name="Path 7870" d="M158.268,50.488c-.473-.023-1.375-.045-2.141-.045-.834,0-1.78.023-2.276.045v-.225c.721-.113.924-.361.924-.924a13.562,13.562,0,0,0-.225-1.577l-1.555-9.06-4.868,11.742h-.248l-5.093-11.764-1.42,8.158a10.318,10.318,0,0,0-.18,1.69c0,.969.315,1.533,1.195,1.736v.225c-.5-.023-1.4-.045-2.231-.045-.766,0-1.014.023-1.487.045v-.225c1.082-.316,1.443-1.308,1.848-3.584l2.321-12.959h.338L148.78,46.68l5.431-12.959h.339l2.412,14.131c.225,1.33.451,2.164,1.307,2.412Z" transform="translate(-54.241 -13.191)" fill="#6c1d45"/>
    <path id="Path_7871" data-name="Path 7871" d="M184.106,50.489c-.474-.023-1.443-.046-2.209-.046-.834,0-2.006.023-2.5.046v-.225c.721-.091.969-.383.969-.857a9.626,9.626,0,0,0-.609-2.344l-.744-2.344c-.856-.023-1.69-.023-2.547-.023-.946,0-1.622,0-2.321.023l-.473,1.262a10.62,10.62,0,0,0-.9,3.156,1.017,1.017,0,0,0,.947,1.127v.225c-.5-.023-1.375-.046-2.209-.046-.766,0-1.194.023-1.645.046v-.225c1.307-.383,1.758-1.1,3.178-4.823l4.485-11.719H178l4.44,13.905c.608,1.893.879,2.434,1.668,2.637Zm-5.364-6.6-1.96-6.2-2.321,6.2c.586.022,1.149.022,2.005.022.654,0,1.442,0,2.276-.022" transform="translate(-66.447 -13.191)" fill="#6c1d45"/>
    <path id="Path_7872" data-name="Path 7872" d="M207.252,50.624a2.946,2.946,0,0,1-1.082.113,3.607,3.607,0,0,1-2.321-.676c-.766-.609-1.442-1.826-2.7-4.215a25.1,25.1,0,0,0-1.42-2.5h-1.037v3.988c0,2.682.09,2.975,1.127,3.133v.225c-.474-.023-1.488-.045-2.3-.045s-1.8.023-2.3.045v-.225c1.037-.158,1.127-.451,1.127-3.156V37.642c0-2.479-.045-3-1.1-3.177v-.226c.631.045,1.488.045,2.412.045.947,0,2.029-.045,2.592-.045,3.719,0,5.634,1.893,5.634,4.463,0,1.984-1.149,3.56-3.719,4.282.857,1.375,3.493,6.941,5.094,7.482Zm-7.5-7.82c2.682,0,3.561-1.375,3.561-3.742,0-2.614-1.059-4.214-3.291-4.214a4.538,4.538,0,0,0-1.33.2V42.8Z" transform="translate(-76.365 -13.394)" fill="#6c1d45"/>
    <path id="Path_7873" data-name="Path 7873" d="M230.094,46.351c-.09.833-.158,2.141-.158,3.222a13.33,13.33,0,0,1-5.477,1.24,8.333,8.333,0,0,1-8.7-8.407c0-4.057,2.862-8.316,8.744-8.316a26.282,26.282,0,0,1,5.432.811c-.045.631-.068,1.533-.068,2.231s.023,1.172.046,1.556h-.226a4.813,4.813,0,0,0-5-3.99c-3.381,0-6.243,2.614-6.243,7.708,0,5.342,3.156,7.776,6.153,7.776a5.56,5.56,0,0,0,5.274-3.876Z" transform="translate(-84.401 -13.336)" fill="#6c1d45"/>
    <path id="Path_7874" data-name="Path 7874" d="M254.014,39.919c0-4.8-.158-5-1.69-5.432v-.225c.5.023,1.24.045,2.051.045.789,0,1.375-.023,1.848-.045v.225c-1.4.406-1.4.654-1.4,5.612v4.4c0,5.026-2.254,6.446-5.635,6.446-3.764,0-5.949-1.758-5.949-6.265v-6.9c0-2.818-.068-3.132-1.127-3.313v-.226c.5.023,1.465.045,2.276.045s1.916-.023,2.389-.045v.226c-1.1.158-1.195.495-1.195,3.29v6.739c0,4.259,1.1,5.657,3.922,5.657,3.222,0,4.507-1.848,4.507-5.679Z" transform="translate(-94.711 -13.394)" fill="#6c1d45"/>
    <path id="Path_7875" data-name="Path 7875" d="M276.2,37.575c-.5-2.366-1.8-3.246-3.381-3.246a2.441,2.441,0,0,0-2.727,2.547c0,4.191,6.986,3.583,6.986,8.947a4.644,4.644,0,0,1-5,4.846c-1.4,0-2.231-.405-3.246-.405a1.945,1.945,0,0,0-.631.068s.023-.339.023-.676c0-.654-.09-1.353-.09-2.029a4.413,4.413,0,0,1,.248-1.577h.225a6.724,6.724,0,0,0,.09.969,3.274,3.274,0,0,0,3.426,3.02,2.8,2.8,0,0,0,3.065-2.93c0-4.372-6.964-3.966-6.964-8.97a4.3,4.3,0,0,1,4.552-4.417c1.195,0,1.961.36,2.93.36a1.942,1.942,0,0,0,.788-.135c-.045.564-.068,1.262-.068,1.961,0,.36,0,1.014.023,1.668Z" transform="translate(-104.889 -13.191)" fill="#6c1d45"/>
    <path id="Path_7876" data-name="Path 7876" d="M149.4,80.86c-.4-.019-1.211-.038-1.854-.038-.7,0-1.685.019-2.1.038v-.189c.606-.076.814-.321.814-.72a8.066,8.066,0,0,0-.511-1.968l-.624-1.968C144.406,76,143.706,76,142.987,76c-.795,0-1.362,0-1.949.019l-.4,1.06a8.92,8.92,0,0,0-.757,2.649.854.854,0,0,0,.795.947v.189c-.416-.019-1.154-.038-1.854-.038-.643,0-1,.019-1.381.038v-.189c1.1-.321,1.476-.928,2.668-4.05l3.766-9.84h.4L148,78.457c.511,1.59.739,2.044,1.4,2.214Zm-4.5-5.545-1.646-5.2-1.949,5.2c.492.019.965.019,1.684.019.549,0,1.212,0,1.912-.019" transform="translate(-53.765 -26.123)" fill="#6c1d45"/>
    <path id="Path_7877" data-name="Path 7877" d="M170.33,77.387c-.076.7-.133,1.8-.133,2.706a11.191,11.191,0,0,1-4.6,1.041,7,7,0,0,1-7.3-7.057c0-3.407,2.4-6.984,7.342-6.984a22.016,22.016,0,0,1,4.56.682c-.038.529-.057,1.286-.057,1.873s.019.984.038,1.307h-.189a4.042,4.042,0,0,0-4.2-3.35c-2.839,0-5.242,2.195-5.242,6.473,0,4.484,2.649,6.527,5.166,6.527a4.669,4.669,0,0,0,4.428-3.254Z" transform="translate(-61.922 -26.245)" fill="#6c1d45"/>
    <path id="Path_7878" data-name="Path 7878" d="M190.081,80.86c-.4-.019-1.211-.038-1.854-.038-.7,0-1.684.019-2.1.038v-.189c.606-.076.814-.321.814-.72a8.066,8.066,0,0,0-.511-1.968l-.624-1.968C185.085,76,184.385,76,183.666,76c-.795,0-1.362,0-1.949.019l-.4,1.06a8.921,8.921,0,0,0-.757,2.649.854.854,0,0,0,.795.947v.189c-.416-.019-1.154-.038-1.854-.038-.643,0-1,.019-1.381.038v-.189c1.1-.321,1.476-.928,2.668-4.05l3.766-9.84h.4l3.728,11.676c.511,1.59.738,2.044,1.4,2.214Zm-4.5-5.545-1.646-5.2-1.949,5.2c.492.019.965.019,1.684.019.549,0,1.212,0,1.912-.019" transform="translate(-69.677 -26.123)" fill="#6c1d45"/>
    <path id="Path_7879" data-name="Path 7879" d="M199.285,80.841c1.079-.17,1.135-.379,1.135-2.914V70.339c0-2.536-.113-2.744-1.135-2.933v-.189c.416.019,1.344.038,2.119.038.757,0,2.119-.019,2.593-.019,6.377,0,8.439,3.539,8.439,6.983,0,3.689-2.384,6.832-7.532,6.832-.7,0-2.365-.057-3.519-.057-.662,0-1.685.019-2.1.038Zm3.1-.511a12.153,12.153,0,0,0,2.308.208c3.387,0,5.507-1.741,5.507-6.283,0-5.487-3.084-6.509-5.979-6.509a7.358,7.358,0,0,0-1.836.189Z" transform="translate(-77.956 -26.294)" fill="#6c1d45"/>
    <path id="Path_7880" data-name="Path 7880" d="M231.747,77.89c-.019,1.438-.094,2.1-.094,3.16-1.4-.038-2.593-.057-4.409-.057h-1.836c-.795,0-1.741.019-2.082.038v-.189c.984-.171,1.022-.53,1.022-2.612V70.037c0-2.253-.095-2.46-1.041-2.631v-.189c.4.019,1.287.038,2.309.038,2.593,0,4.883,0,6.018-.038,0,0,.019.379.019,1,0,.644-.019,1.325-.057,1.912h-.189c-.454-2.12-1.23-2.252-3.368-2.252a7.91,7.91,0,0,0-1.722.094v5.6H227.6c1.646,0,2.177-.189,2.5-1.533h.189c-.018.567-.057,1.079-.057,1.836,0,.776.038,1.286.057,1.836H230.1c-.284-1.458-1.022-1.533-2.5-1.533h-1.286v6.094a8.567,8.567,0,0,0,1.665.094c2.139,0,2.971-.133,3.577-2.479Z" transform="translate(-87.353 -26.294)" fill="#6c1d45"/>
    <path id="Path_7881" data-name="Path 7881" d="M254.874,80.861c-.4-.019-1.154-.038-1.8-.038-.7,0-1.5.019-1.911.038v-.189c.605-.095.776-.3.776-.776a11.289,11.289,0,0,0-.189-1.325l-1.305-7.607-4.088,9.859h-.208l-4.277-9.878-1.192,6.85a8.68,8.68,0,0,0-.152,1.419c0,.813.265,1.286,1,1.457v.189c-.416-.019-1.173-.038-1.873-.038-.644,0-.852.019-1.249.038v-.189c.908-.265,1.212-1.1,1.552-3.009l1.949-10.881h.284l4.712,10.881,4.561-10.881h.284l2.025,11.865c.189,1.117.379,1.817,1.1,2.025Z" transform="translate(-93.261 -26.124)" fill="#6c1d45"/>
    <path id="Path_7882" data-name="Path 7882" d="M271.706,81.031c-.416-.019-1.268-.038-1.949-.038s-1.495.019-1.911.038v-.189c.776-.132.946-.379.946-2.195V76.414l-3.615-7.172c-.681-1.344-.965-1.741-1.532-1.836v-.189c.4.019,1.438.038,2.157.038s1.646-.019,2.063-.038v.189c-.549.094-.851.245-.851.7a3.264,3.264,0,0,0,.435,1.287l2.877,5.866,2.252-4.58a6.139,6.139,0,0,0,.908-2.4c0-.454-.189-.757-.813-.871v-.189c.416.019.965.038,1.646.038.662,0,1.079-.019,1.476-.038v.189c-.908.284-1.117.7-2.574,3.615l-2.46,4.9v2.726c0,1.816.151,2.063.946,2.195Z" transform="translate(-103.133 -26.294)" fill="#6c1d45"/>
    <path id="Path_7883" data-name="Path 7883" d="M146.01,109.667c-.207-.01-.6-.019-.935-.019-.363,0-.776.01-.992.019v-.1c.315-.049.4-.158.4-.4a5.889,5.889,0,0,0-.1-.688l-.678-3.951-2.124,5.121h-.107l-2.222-5.131-.619,3.558a4.49,4.49,0,0,0-.079.737c0,.423.138.668.521.757v.1c-.216-.01-.609-.019-.973-.019-.334,0-.443.01-.649.019v-.1c.472-.138.629-.57.806-1.563l1.012-5.652h.147l2.447,5.652,2.368-5.652h.147l1.052,6.162c.1.58.2.944.57,1.052Z" transform="translate(-53.771 -40.039)" fill="#6c1d45"/>
    <path id="Path_7884" data-name="Path 7884" d="M157.926,109.666c-.206-.009-.629-.019-.963-.019-.363,0-.875.01-1.091.019v-.1c.315-.039.423-.167.423-.373a4.21,4.21,0,0,0-.265-1.022l-.325-1.022c-.373-.01-.737-.01-1.11-.01-.413,0-.708,0-1.012.01l-.206.55a4.633,4.633,0,0,0-.393,1.376.443.443,0,0,0,.413.491v.1c-.216-.009-.6-.019-.963-.019-.334,0-.521.01-.717.019v-.1c.57-.167.766-.482,1.386-2.1l1.956-5.11h.206l1.937,6.064c.265.825.383,1.061.727,1.149Zm-2.339-2.879-.855-2.7-1.012,2.7c.256.01.5.01.875.01.285,0,.629,0,.992-.01" transform="translate(-59.348 -40.039)" fill="#6c1d45"/>
    <path id="Path_7885" data-name="Path 7885" d="M168.667,109.725a1.293,1.293,0,0,1-.472.049,1.569,1.569,0,0,1-1.012-.3A6.28,6.28,0,0,1,166,107.641a10.867,10.867,0,0,0-.619-1.091h-.452v1.739c0,1.17.039,1.3.491,1.366v.1c-.207-.009-.649-.019-1-.019s-.787.01-1,.019v-.1c.452-.069.491-.2.491-1.376v-4.216c0-1.082-.019-1.308-.482-1.386v-.1c.276.02.649.02,1.052.02s.885-.02,1.13-.02c1.622,0,2.458.826,2.458,1.946a1.905,1.905,0,0,1-1.622,1.868c.373.6,1.523,3.027,2.221,3.263Zm-3.273-3.411c1.17,0,1.553-.6,1.553-1.632,0-1.14-.462-1.837-1.435-1.837a1.97,1.97,0,0,0-.58.088v3.381Z" transform="translate(-63.926 -40.127)" fill="#6c1d45"/>
    <path id="Path_7886" data-name="Path 7886" d="M179.05,109.755c-.206-.01-.737-.019-1.072-.019-.363,0-.826.01-1.042.019v-.1c.177-.03.236-.089.236-.187a3.647,3.647,0,0,0-.669-1.072l-1.562-2.172v2.083c0,1.15.039,1.278.491,1.347v.1c-.206-.01-.648-.019-1-.019s-.786.01-1,.019v-.1c.452-.069.491-.2.491-1.356v-4.256c0-1.17-.04-1.288-.491-1.366v-.1c.216.01.639.02,1,.02s.8-.01,1-.02v.1c-.452.079-.491.206-.491,1.356v2a15.08,15.08,0,0,0,2.29-3.066c0-.167-.108-.246-.334-.285v-.1c.286.02.8.02,1.16.02.305,0,.609-.01.777-.02v.1c-.728.147-1.416.865-3.135,2.91l2.024,2.732c.551.748.914,1.2,1.327,1.327Z" transform="translate(-67.842 -40.127)" fill="#6c1d45"/>
    <path id="Path_7887" data-name="Path 7887" d="M187.933,108.123c-.01.747-.049,1.091-.049,1.641-.727-.019-1.346-.03-2.29-.03h-.953c-.413,0-.9.01-1.081.02v-.1c.511-.089.531-.276.531-1.356v-4.256c0-1.17-.049-1.278-.541-1.366v-.1c.206.01.668.02,1.2.02,1.347,0,2.536,0,3.126-.02,0,0,.01.2.01.521s-.01.688-.029.992h-.1c-.236-1.1-.639-1.17-1.75-1.17a4.062,4.062,0,0,0-.894.049v2.909h.668c.855,0,1.131-.1,1.3-.8h.1c-.01.295-.03.56-.03.953s.02.669.03.954h-.1c-.147-.757-.53-.8-1.3-.8h-.668v3.165a4.412,4.412,0,0,0,.865.049c1.11,0,1.543-.069,1.857-1.288Z" transform="translate(-71.801 -40.127)" fill="#6c1d45"/>
    <path id="Path_7888" data-name="Path 7888" d="M195.8,109.661c-.206-.01-.648-.019-1-.019s-.786.01-1,.019v-.1c.452-.069.491-.2.491-1.366v-5.278h-.393c-1.238.009-1.475.226-1.661.845h-.108c.059-.472.147-.934.177-1.425a5.571,5.571,0,0,0,2.408.255,7.9,7.9,0,0,0,2.83-.216,10.413,10.413,0,0,0-.216,1.327h-.108c-.03-.757-.354-.777-1.907-.786V108.2c0,1.17.039,1.3.491,1.366Z" transform="translate(-75.154 -40.033)" fill="#6c1d45"/>
    <path id="Path_7889" data-name="Path 7889" d="M204.444,109.755c-.206-.01-.648-.019-1-.019s-.786.01-1,.019v-.1c.413-.069.491-.2.491-1.14v-4.7c0-.944-.079-1.071-.491-1.14v-.1c.216.01.639.02,1,.02s.8-.01,1-.02v.1c-.4.069-.491.2-.491,1.14v4.7c0,.944.088,1.072.491,1.14Z" transform="translate(-79.19 -40.127)" fill="#6c1d45"/>
    <path id="Path_7890" data-name="Path 7890" d="M213.977,109.863c-1.622-1.8-3.519-3.863-5.268-5.7v.776c0,4.1.019,4.423.707,4.629v.1c-.216-.01-.511-.019-.875-.019-.334,0-.57.01-.776.019v-.1c.5-.167.59-.452.59-2.556,0-1.779,0-3.194-.02-4.659h.118c1.681,1.867,3.548,3.892,5.229,5.691v-.787c0-4.2-.04-4.462-.708-4.668v-.1c.216.01.511.02.875.02.334,0,.59-.01.8-.02v.1c-.511.167-.609.423-.609,2.545,0,2.31,0,3.539.029,4.728Z" transform="translate(-81.274 -40.039)" fill="#6c1d45"/>
    <path id="Path_7891" data-name="Path 7891" d="M224.549,109.809a3.629,3.629,0,0,1-3.853-3.666,3.589,3.589,0,0,1,3.882-3.627,13.761,13.761,0,0,1,2.556.413c-.02.246-.03.639-.03.944s.01.511.019.678h-.1a2.28,2.28,0,0,0-2.379-1.769c-1.5,0-2.8,1.061-2.8,3.352,0,2.2,1.2,3.41,2.762,3.41a2.173,2.173,0,0,0,1.563-.56V107.8c0-1.258-.059-1.366-.531-1.434v-.1c.216.01.678.019,1.032.019s.766-.01.983-.019v.1c-.452.079-.462.275-.462,1.464,0,.236,0,.816.01,1.307-.835.06-1.2.669-2.653.669" transform="translate(-86.332 -40.102)" fill="#6c1d45"/>
    <path id="Path_7892" data-name="Path 7892" d="M143.81,122.866c-.037.342-.065.876-.065,1.319a5.449,5.449,0,0,1-2.242.507,3.411,3.411,0,0,1-3.561-3.44,3.362,3.362,0,0,1,3.579-3.4,10.734,10.734,0,0,1,2.223.332c-.018.259-.027.627-.027.913s.009.48.018.637h-.093A1.97,1.97,0,0,0,141.6,118.1c-1.383,0-2.555,1.07-2.555,3.155,0,2.186,1.291,3.182,2.518,3.182a2.277,2.277,0,0,0,2.159-1.587Z" transform="translate(-53.961 -46.1)" fill="#6c1d45"/>
    <path id="Path_7893" data-name="Path 7893" d="M151.891,124.693a3.343,3.343,0,0,1-3.358-3.395,3.4,3.4,0,0,1,3.377-3.45,3.423,3.423,0,0,1-.019,6.845m2.288-3.386c0-2.233-.96-3.21-2.288-3.21s-2.251.959-2.251,3.2c0,2.168.877,3.145,2.26,3.145s2.279-1,2.279-3.136" transform="translate(-58.103 -46.1)" fill="#6c1d45"/>
    <path id="Path_7894" data-name="Path 7894" d="M165.554,120.233c0-1.965-.065-2.048-.692-2.223v-.093c.2.01.508.019.84.019s.563-.009.757-.019v.093c-.572.166-.572.267-.572,2.3v1.8c0,2.057-.922,2.639-2.306,2.639-1.54,0-2.435-.719-2.435-2.564v-2.822c0-1.154-.027-1.283-.461-1.356v-.092c.2.009.6.018.931.018s.784-.01.978-.018V118c-.452.065-.489.2-.489,1.347v2.758c0,1.744.452,2.316,1.6,2.316,1.319,0,1.845-.756,1.845-2.324Z" transform="translate(-62.856 -46.124)" fill="#6c1d45"/>
    <path id="Path_7895" data-name="Path 7895" d="M176.228,124.616a1.214,1.214,0,0,1-.443.046,1.477,1.477,0,0,1-.95-.276,5.907,5.907,0,0,1-1.107-1.725,10.193,10.193,0,0,0-.581-1.024h-.424v1.633c0,1.1.037,1.218.461,1.282v.093c-.194-.009-.609-.019-.941-.019s-.738.01-.941.019v-.093c.424-.064.461-.184.461-1.291V119.3c0-1.015-.018-1.227-.452-1.3v-.093c.259.018.609.018.988.018s.83-.018,1.061-.018c1.522,0,2.306.775,2.306,1.826a1.787,1.787,0,0,1-1.522,1.753c.351.563,1.43,2.841,2.085,3.062Zm-3.072-3.2c1.1,0,1.458-.563,1.458-1.532,0-1.07-.433-1.725-1.347-1.725a1.851,1.851,0,0,0-.544.083v3.174Z" transform="translate(-67.01 -46.124)" fill="#6c1d45"/>
    <path id="Path_7896" data-name="Path 7896" d="M183.422,119.274c-.2-.969-.738-1.328-1.384-1.328a1,1,0,0,0-1.116,1.042c0,1.716,2.86,1.467,2.86,3.663a1.9,1.9,0,0,1-2.048,1.983c-.572,0-.913-.166-1.328-.166a.783.783,0,0,0-.258.028s.009-.138.009-.277c0-.267-.037-.553-.037-.83a1.817,1.817,0,0,1,.1-.646h.093a2.8,2.8,0,0,0,.037.4,1.34,1.34,0,0,0,1.4,1.236,1.144,1.144,0,0,0,1.255-1.2c0-1.789-2.85-1.624-2.85-3.671a1.758,1.758,0,0,1,1.864-1.808c.489,0,.8.147,1.2.147a.8.8,0,0,0,.323-.055c-.018.23-.028.516-.028.8,0,.147,0,.415.01.682Z" transform="translate(-70.459 -46.041)" fill="#6c1d45"/>
    <path id="Path_7897" data-name="Path 7897" d="M191.505,123.112c-.009.7-.046,1.024-.046,1.54-.682-.018-1.263-.028-2.149-.028h-.895c-.387,0-.849.01-1.015.019v-.093c.48-.083.5-.258.5-1.273v-3.994c0-1.1-.046-1.2-.508-1.283v-.092c.194.009.627.018,1.126.018,1.264,0,2.38,0,2.933-.018,0,0,.009.184.009.489s-.009.645-.027.931h-.092c-.222-1.033-.6-1.1-1.643-1.1a3.872,3.872,0,0,0-.84.046v2.731h.628c.8,0,1.061-.092,1.218-.748h.092c-.009.277-.027.527-.027.895s.018.627.027.895H190.7c-.138-.71-.5-.747-1.218-.747h-.628v2.97a4.165,4.165,0,0,0,.812.046c1.042,0,1.448-.064,1.744-1.208Z" transform="translate(-73.304 -46.124)" fill="#6c1d45"/>
    <path id="Path_7898" data-name="Path 7898" d="M198.783,119.274c-.2-.969-.738-1.328-1.384-1.328a1,1,0,0,0-1.116,1.042c0,1.716,2.86,1.467,2.86,3.663a1.9,1.9,0,0,1-2.048,1.983c-.572,0-.913-.166-1.328-.166a.783.783,0,0,0-.258.028s.009-.138.009-.277c0-.267-.037-.553-.037-.83a1.816,1.816,0,0,1,.1-.646h.093a2.8,2.8,0,0,0,.037.4,1.34,1.34,0,0,0,1.4,1.236,1.144,1.144,0,0,0,1.255-1.2c0-1.789-2.851-1.624-2.851-3.671a1.758,1.758,0,0,1,1.864-1.808c.489,0,.8.147,1.2.147a.8.8,0,0,0,.323-.055c-.018.23-.028.516-.028.8,0,.147,0,.415.01.682Z" transform="translate(-76.468 -46.041)" fill="#6c1d45"/>
    <path id="Path_7899" data-name="Path 7899" d="M207.134,122.846a1.049,1.049,0,0,0-.065.378,1.125,1.125,0,0,0,1.2,1.19c.8,0,1.273-.581,1.273-1.522a1.423,1.423,0,0,0-1.522-1.586v-.111a1.469,1.469,0,0,0,1.485-1.624,1.245,1.245,0,0,0-1.264-1.421,1.181,1.181,0,0,0-1.282,1.154.871.871,0,0,0,.351.729,1.423,1.423,0,0,0-.461.23,1.346,1.346,0,0,1-.239-.8,1.75,1.75,0,0,1,1.909-1.688,1.819,1.819,0,0,1,1.984,1.735,1.551,1.551,0,0,1-1.089,1.476,1.776,1.776,0,0,1,1.171,1.679,2.056,2.056,0,0,1-2.214,2,1.823,1.823,0,0,1-1.892-1.337,5.159,5.159,0,0,0,.628-.508Z" transform="translate(-80.771 -46.07)" fill="#6c1d45"/>
    <path id="Path_7900" data-name="Path 7900" d="M215.693,121.328a1.949,1.949,0,0,1,1.8-1.2,1.874,1.874,0,0,1,1.808,2.121,2.272,2.272,0,0,1-2.343,2.435c-1.679,0-2.3-1.411-2.3-2.859a3.718,3.718,0,0,1,3.884-4v.13c-1.974.1-2.712,1.679-2.85,3.367m-.018.443v.194c0,.868.147,2.472,1.347,2.472.96,0,1.255-1.042,1.255-2.047,0-1.265-.471-1.91-1.19-1.91s-1.162.627-1.411,1.291" transform="translate(-83.971 -46.094)" fill="#6c1d45"/>
    <path id="Path_7901" data-name="Path 7901" d="M223.553,121.335c0-1.735.8-3.487,2.472-3.487s2.472,1.753,2.472,3.487c0,1.984-1.051,3.357-2.481,3.357s-2.463-1.373-2.463-3.357m3.828-.083c0-2.288-.461-3.146-1.365-3.146s-1.356.858-1.356,3.146c0,2.315.471,3.191,1.356,3.191.9,0,1.365-.895,1.365-3.191" transform="translate(-87.45 -46.1)" fill="#6c1d45"/>
    <rect id="Rectangle_2347" data-name="Rectangle 2347" width="87.51" height="0.938" transform="translate(83.677 57.93)" fill="#b77729"/>
    <path id="Path_7902" data-name="Path 7902" d="M33.676,26.842,53.538,6.98,67.353,20.795V0H0V20.795L13.815,6.98Z" transform="translate(0 0)" fill="#6c1d45"/>
    <path id="Path_7903" data-name="Path 7903" d="M30.784,119.753A146.132,146.132,0,0,0,45.719,132.1,119.3,119.3,0,0,0,60.6,119.7L45.719,104.818Z" transform="translate(-12.042 -41.003)" fill="#d6a461"/>
    <path id="Path_7904" data-name="Path 7904" d="M33.726,61.691h0L13.865,41.829.126,55.568A57.039,57.039,0,0,0,10.178,85.24L33.726,61.692,57.245,85.211a56.169,56.169,0,0,0,6.862-13.326,57.208,57.208,0,0,0,3.219-16.318L53.588,41.829Z" transform="translate(-0.049 -16.363)" fill="#b77729"/>
  </g>
</svg>
