<svg xmlns="http://www.w3.org/2000/svg" width="24.36" height="15.437" viewBox="0 0 24.36 15.437">
  <g id="Mail" transform="translate(2654.231 1645.075)">
    <path id="Path_4853" data-name="Path 4853" d="M-2485.924-1347.465h21.044a1.155,1.155,0,0,1,1.158,1.158v12.122a1.155,1.155,0,0,1-1.158,1.157h-21.044a1.155,1.155,0,0,1-1.158-1.157v-12.122a1.155,1.155,0,0,1,1.158-1.158Zm0,0" transform="translate(-166.649 -297.11)" fill="#6b1f45"/>
    <path id="Path_4854" data-name="Path 4854" d="M-2485.924-1347.465h21.044a1.155,1.155,0,0,1,1.158,1.158v12.122a1.155,1.155,0,0,1-1.158,1.157h-21.044a1.155,1.155,0,0,1-1.158-1.157v-12.122a1.155,1.155,0,0,1,1.158-1.158Zm0,0" transform="translate(-166.649 -297.11)" fill="#6b1f45" stroke="#fff" stroke-linecap="round" stroke-linejoin="round" stroke-width="1"/>
    <path id="Path_4855" data-name="Path 4855" d="M-2456.678-1129.208l7.865,7.01a1.057,1.057,0,0,1-.629.209h-21.044a1.059,1.059,0,0,1-.63-.209l7.856-7" transform="translate(-182.086 -508.15)" fill="#6b1f45"/>
    <path id="Path_4856" data-name="Path 4856" d="M-2456.678-1129.208l7.865,7.01a1.057,1.057,0,0,1-.629.209h-21.044a1.059,1.059,0,0,1-.63-.209l7.856-7" transform="translate(-182.086 -508.15)" fill="#6b1f45" stroke="#fff" stroke-linecap="round" stroke-linejoin="round" stroke-width="1"/>
    <path id="Path_4857" data-name="Path 4857" d="M-2470.487-1347.465a1.068,1.068,0,0,0-.63.207l10.715,9.422a.678.678,0,0,0,.874,0l10.715-9.422a1.066,1.066,0,0,0-.629-.207Zm0,0" transform="translate(-182.086 -297.11)" fill="#6b1f45"/>
    <path id="Path_4858" data-name="Path 4858" d="M-2470.487-1347.465a1.068,1.068,0,0,0-.63.207l10.715,9.422a.678.678,0,0,0,.874,0l10.715-9.422a1.066,1.066,0,0,0-.629-.207Zm0,0" transform="translate(-182.086 -297.11)" fill="#6b1f45" stroke="#fff" stroke-linecap="round" stroke-linejoin="round" stroke-width="1"/>
  </g>
</svg>
