<svg xmlns="http://www.w3.org/2000/svg" width="120.122" height="217.581" viewBox="0 0 120.122 217.581">
  <g id="marcus_master" transform="translate(0)">
    <g id="Group_8" data-name="Group 8" transform="translate(0.013 144.701)">
      <path id="Path_46" data-name="Path 46" d="M477.772,278.962c-.636-.03-1.846-.06-2.876-.06-1.12,0-2.391.03-3.057.06v-.3c.968-.151,1.241-.484,1.241-1.241a18.048,18.048,0,0,0-.3-2.118l-2.088-12.166L464.152,278.9h-.333l-6.839-15.8-1.906,10.955a13.852,13.852,0,0,0-.241,2.27c0,1.3.423,2.057,1.6,2.33v.3c-.666-.03-1.877-.06-3-.06-1.029,0-1.362.03-2,.06v-.3c1.453-.424,1.937-1.755,2.482-4.812l3.116-17.4h.455l7.536,17.4,7.293-17.4h.454l3.238,18.975c.3,1.785.606,2.9,1.756,3.238Z" transform="translate(-450.447 -256.446)" fill="#8b5b29"/>
      <path id="Path_47" data-name="Path 47" d="M501.108,278.962c-.636-.03-1.937-.06-2.966-.06-1.12,0-2.694.03-3.36.06v-.3c.968-.121,1.3-.515,1.3-1.15a12.9,12.9,0,0,0-.817-3.148l-1-3.147c-1.15-.031-2.271-.031-3.42-.031-1.271,0-2.179,0-3.117.031l-.636,1.694a14.285,14.285,0,0,0-1.21,4.237,1.364,1.364,0,0,0,1.27,1.513v.3c-.665-.03-1.845-.06-2.965-.06-1.029,0-1.6.03-2.21.06v-.3c1.756-.515,2.361-1.483,4.267-6.476l6.022-15.737h.636l5.963,18.672c.816,2.542,1.18,3.268,2.24,3.542Zm-7.2-8.867-2.633-8.323-3.116,8.323c.786.03,1.542.03,2.693.03C491.726,270.126,492.786,270.126,493.905,270.1Z" transform="translate(-455.472 -256.446)" fill="#8b5b29"/>
      <path id="Path_48" data-name="Path 48" d="M522.956,278.955a3.967,3.967,0,0,1-1.452.15,4.839,4.839,0,0,1-3.117-.907c-1.029-.817-1.937-2.451-3.632-5.659a33.487,33.487,0,0,0-1.907-3.359h-1.392v5.357c0,3.6.12,4,1.513,4.206v.3c-.636-.03-2-.06-3.087-.06s-2.422.03-3.087.06v-.3c1.393-.211,1.513-.606,1.513-4.237V261.523c0-3.328-.06-4.025-1.483-4.267v-.3c.847.06,2,.06,3.239.06,1.27,0,2.723-.06,3.48-.06,4.993,0,7.566,2.542,7.566,5.991,0,2.664-1.543,4.782-4.994,5.75,1.15,1.846,4.691,9.322,6.839,10.048Zm-10.077-10.5c3.6,0,4.781-1.845,4.781-5.023,0-3.511-1.422-5.66-4.419-5.66a6.121,6.121,0,0,0-1.784.272v10.41Z" transform="translate(-459.556 -256.53)" fill="#8b5b29"/>
      <path id="Path_49" data-name="Path 49" d="M546.15,273.271c-.121,1.12-.212,2.876-.212,4.328a17.911,17.911,0,0,1-7.354,1.664c-7.354,0-11.681-5.478-11.681-11.289,0-5.447,3.844-11.167,11.742-11.167a35.18,35.18,0,0,1,7.293,1.09c-.06.846-.09,2.058-.09,3s.03,1.574.06,2.088h-.3a6.464,6.464,0,0,0-6.719-5.356c-4.54,0-8.383,3.511-8.383,10.35,0,7.172,4.237,10.441,8.262,10.441a7.468,7.468,0,0,0,7.082-5.2Z" transform="translate(-462.864 -256.506)" fill="#8b5b29"/>
      <path id="Path_50" data-name="Path 50" d="M568.676,264.58c0-6.446-.212-6.718-2.27-7.293v-.3c.666.03,1.664.06,2.754.06,1.06,0,1.846-.03,2.482-.06v.3c-1.876.544-1.876.878-1.876,7.536v5.9c0,6.749-3.026,8.655-7.566,8.655-5.054,0-7.99-2.36-7.99-8.413V261.7c0-3.782-.09-4.207-1.513-4.448v-.3c.666.03,1.967.06,3.057.06s2.572-.03,3.208-.06v.3c-1.483.211-1.6.666-1.6,4.418v9.049c0,5.72,1.482,7.6,5.266,7.6,4.328,0,6.053-2.482,6.053-7.627Z" transform="translate(-467.109 -256.53)" fill="#8b5b29"/>
      <path id="Path_51" data-name="Path 51" d="M589,261.621c-.665-3.177-2.42-4.358-4.539-4.358s-3.662,1.15-3.662,3.42c0,5.628,9.382,4.811,9.382,12.015,0,3.722-2.482,6.507-6.719,6.507-1.877,0-3-.545-4.358-.545a2.6,2.6,0,0,0-.848.091s.03-.454.03-.908c0-.878-.12-1.816-.12-2.724A5.945,5.945,0,0,1,578.5,273h.3a9.1,9.1,0,0,0,.121,1.3,4.4,4.4,0,0,0,4.6,4.054,3.753,3.753,0,0,0,4.116-3.934c0-5.871-9.352-5.326-9.352-12.045a5.77,5.77,0,0,1,6.114-5.932c1.6,0,2.632.485,3.934.485a2.594,2.594,0,0,0,1.059-.182c-.06.757-.09,1.7-.09,2.633,0,.485,0,1.362.03,2.239Z" transform="translate(-471.299 -256.446)" fill="#8b5b29"/>
      <path id="Path_52" data-name="Path 52" d="M466.307,307.709c-.533-.025-1.626-.05-2.49-.05-.94,0-2.262.025-2.82.05v-.254c.814-.1,1.092-.432,1.092-.965a10.812,10.812,0,0,0-.686-2.643l-.838-2.643c-.966-.025-1.906-.025-2.871-.025-1.068,0-1.83,0-2.617.025l-.534,1.423a12,12,0,0,0-1.016,3.557,1.145,1.145,0,0,0,1.068,1.27v.254c-.559-.025-1.551-.05-2.49-.05-.864,0-1.347.025-1.854.05v-.254c1.473-.432,1.982-1.245,3.582-5.436l5.055-13.212h.534l5.005,15.676c.687,2.135.992,2.744,1.881,2.973Zm-6.047-7.444-2.21-6.987-2.617,6.987c.661.025,1.3.025,2.262.025C458.432,300.29,459.321,300.29,460.26,300.265Z" transform="translate(-450.251 -261.771)" fill="#8b5b29"/>
      <path id="Path_53" data-name="Path 53" d="M486.817,302.933c-.1.94-.178,2.413-.178,3.633a15.031,15.031,0,0,1-6.174,1.4,9.393,9.393,0,0,1-9.806-9.476c0-4.573,3.226-9.375,9.857-9.375a29.513,29.513,0,0,1,6.123.915c-.051.711-.076,1.728-.076,2.515s.025,1.321.05,1.754h-.253a5.428,5.428,0,0,0-5.641-4.5c-3.811,0-7.038,2.947-7.038,8.689,0,6.021,3.557,8.765,6.937,8.765a6.271,6.271,0,0,0,5.945-4.37Z" transform="translate(-453.609 -261.821)" fill="#8b5b29"/>
      <path id="Path_54" data-name="Path 54" d="M506.122,307.709c-.534-.025-1.627-.05-2.491-.05-.94,0-2.262.025-2.82.05v-.254c.814-.1,1.093-.432,1.093-.965a10.812,10.812,0,0,0-.686-2.643l-.838-2.643c-.967-.025-1.906-.025-2.871-.025-1.067,0-1.829,0-2.617.025l-.533,1.423a11.993,11.993,0,0,0-1.016,3.557,1.145,1.145,0,0,0,1.067,1.27v.254c-.559-.025-1.55-.05-2.49-.05-.864,0-1.348.025-1.855.05v-.254c1.474-.432,1.982-1.245,3.582-5.436l5.056-13.212h.534l5.005,15.676c.686,2.135.991,2.744,1.881,2.973Zm-6.048-7.444-2.21-6.987-2.617,6.987c.661.025,1.3.025,2.262.025C498.246,300.29,499.135,300.29,500.074,300.265Z" transform="translate(-456.802 -261.771)" fill="#8b5b29"/>
      <path id="Path_55" data-name="Path 55" d="M510.777,307.525c1.448-.228,1.524-.508,1.524-3.912V293.424c0-3.4-.151-3.684-1.524-3.937v-.254c.559.025,1.8.05,2.846.05,1.016,0,2.846-.025,3.48-.025,8.562,0,11.332,4.751,11.332,9.375,0,4.954-3.2,9.171-10.112,9.171-.94,0-3.176-.075-4.725-.075-.89,0-2.261.025-2.82.05Zm4.166-.686a16.381,16.381,0,0,0,3.1.28c4.548,0,7.394-2.338,7.394-8.436,0-7.368-4.141-8.74-8.029-8.74a9.923,9.923,0,0,0-2.465.254Z" transform="translate(-460.211 -261.841)" fill="#8b5b29"/>
      <path id="Path_56" data-name="Path 56" d="M545.62,303.562c-.025,1.932-.127,2.82-.127,4.242-1.88-.05-3.48-.075-5.92-.075h-2.464c-1.068,0-2.338.025-2.8.05v-.254c1.321-.228,1.373-.711,1.373-3.506v-11c0-3.023-.128-3.3-1.4-3.531v-.254c.533.025,1.728.05,3.1.05,3.48,0,6.554,0,8.079-.05,0,0,.025.507.025,1.346,0,.864-.025,1.779-.076,2.566h-.255c-.609-2.846-1.651-3.023-4.522-3.023a10.617,10.617,0,0,0-2.312.127v7.521h1.728c2.211,0,2.921-.255,3.354-2.059h.253c-.025.763-.075,1.449-.075,2.465,0,1.042.05,1.728.075,2.465h-.253c-.382-1.957-1.373-2.059-3.354-2.059h-1.728v8.182a11.535,11.535,0,0,0,2.236.127c2.872,0,3.989-.178,4.8-3.328Z" transform="translate(-464.08 -261.841)" fill="#8b5b29"/>
      <path id="Path_57" data-name="Path 57" d="M571.174,307.709c-.533-.025-1.55-.05-2.414-.05-.94,0-2.007.025-2.566.05v-.254c.813-.127,1.042-.406,1.042-1.042a15.176,15.176,0,0,0-.255-1.779l-1.752-10.213-5.489,13.237h-.279L553.72,294.4l-1.6,9.2a11.625,11.625,0,0,0-.2,1.906c0,1.092.356,1.728,1.346,1.956v.254c-.558-.025-1.574-.05-2.515-.05-.863,0-1.143.025-1.677.05v-.254c1.22-.355,1.626-1.473,2.084-4.039l2.617-14.609h.381l6.326,14.609,6.123-14.609h.381l2.719,15.93c.255,1.5.509,2.438,1.474,2.718Z" transform="translate(-466.512 -261.771)" fill="#8b5b29"/>
      <path id="Path_58" data-name="Path 58" d="M584.592,307.779c-.559-.025-1.7-.05-2.617-.05s-2.007.025-2.566.05v-.254c1.042-.177,1.271-.508,1.271-2.947v-3l-4.853-9.628c-.915-1.8-1.3-2.338-2.058-2.465v-.254c.534.025,1.932.05,2.9.05s2.21-.025,2.769-.05v.254c-.736.127-1.143.33-1.143.94a4.393,4.393,0,0,0,.584,1.728l3.863,7.876,3.023-6.149c.889-1.8,1.22-2.515,1.22-3.226,0-.61-.254-1.017-1.093-1.169v-.254c.559.025,1.3.05,2.211.05.889,0,1.448-.025,1.982-.05v.254c-1.219.381-1.5.94-3.455,4.852l-3.3,6.58v3.659c0,2.439.2,2.77,1.27,2.947Z" transform="translate(-470.576 -261.841)" fill="#8b5b29"/>
    </g>
    <line id="Line_3" data-name="Line 3" x2="120.1" transform="translate(0 195.556)" fill="none" stroke="#d6a461" stroke-width="1.292"/>
    <path id="Path_59" data-name="Path 59" d="M512.681,119.293l26.675-26.675,18.555,18.554V83.244H467.452v27.929l18.554-18.554Z" transform="translate(-453.068 -83.244)" fill="#8b5b29"/>
    <path id="Path_60" data-name="Path 60" d="M512.7,150.858l-26.676-26.675-18.451,18.452A76.818,76.818,0,0,0,471.9,164.55h0a76.812,76.812,0,0,0,9.177,17.936L512.7,150.86l31.588,31.588a75.436,75.436,0,0,0,9.216-17.9h0a76.849,76.849,0,0,0,4.323-21.915l-18.452-18.452Z" transform="translate(-453.089 -89.98)" fill="#b77729"/>
    <path id="Path_61" data-name="Path 61" d="M497.581,205.891a196.3,196.3,0,0,0,20.058,16.578,160.321,160.321,0,0,0,19.989-16.647l-19.989-19.989Z" transform="translate(-458.026 -100.125)" fill="#d6a461"/>
    <g id="Group_9" data-name="Group 9" transform="translate(37.883 200.514)">
      <path id="Path_62" data-name="Path 62" d="M515.3,340.142c-.475-.023-1.382-.045-2.153-.045-.839,0-1.79.023-2.289.045v-.226c.725-.114.929-.363.929-.929a13.867,13.867,0,0,0-.226-1.587L510,328.288,505.1,340.1h-.25l-5.121-11.832-1.428,8.2a10.352,10.352,0,0,0-.182,1.7c0,.974.317,1.541,1.2,1.745v.226c-.5-.023-1.405-.045-2.244-.045-.77,0-1.02.023-1.5.045v-.226c1.087-.317,1.45-1.315,1.858-3.6l2.334-13.033h.34l5.644,13.033,5.462-13.033h.341l2.424,14.212c.226,1.337.454,2.176,1.314,2.425Z" transform="translate(-495.58 -323.256)" fill="#b77729"/>
      <path id="Path_63" data-name="Path 63" d="M532.777,340.142c-.475-.023-1.45-.045-2.221-.045-.839,0-2.018.023-2.516.045v-.226c.725-.091.974-.386.974-.861a9.673,9.673,0,0,0-.612-2.358l-.748-2.357c-.861-.023-1.7-.023-2.562-.023-.952,0-1.632,0-2.334.023l-.476,1.269a10.692,10.692,0,0,0-.906,3.173,1.023,1.023,0,0,0,.952,1.134v.226c-.5-.023-1.383-.045-2.221-.045-.77,0-1.2.023-1.654.045v-.226c1.315-.386,1.768-1.111,3.2-4.851l4.51-11.786h.476l4.465,13.985c.612,1.9.885,2.449,1.678,2.652Zm-5.394-6.641-1.972-6.233-2.334,6.233c.589.023,1.156.023,2.017.023C525.751,333.524,526.544,333.524,527.383,333.5Z" transform="translate(-499.344 -323.256)" fill="#b77729"/>
      <path id="Path_64" data-name="Path 64" d="M545.207,327.155c-.5-2.379-1.814-3.264-3.4-3.264a2.455,2.455,0,0,0-2.743,2.562c0,4.216,7.026,3.6,7.026,9a4.671,4.671,0,0,1-5.032,4.873c-1.4,0-2.243-.408-3.264-.408a1.958,1.958,0,0,0-.634.068s.023-.34.023-.68c0-.657-.091-1.359-.091-2.04a4.447,4.447,0,0,1,.25-1.586h.227a6.683,6.683,0,0,0,.09.974,3.292,3.292,0,0,0,3.445,3.037,2.811,2.811,0,0,0,3.083-2.947c0-4.4-7-3.988-7-9.021a4.32,4.32,0,0,1,4.578-4.442c1.2,0,1.972.363,2.947.363a1.949,1.949,0,0,0,.793-.136c-.045.567-.068,1.27-.068,1.973,0,.363,0,1.019.023,1.677Z" transform="translate(-502.411 -323.256)" fill="#b77729"/>
      <path id="Path_65" data-name="Path 65" d="M557.427,340.138c-.476-.023-1.5-.045-2.312-.045-.839,0-1.813.023-2.312.045v-.226c1.043-.16,1.134-.454,1.134-3.151V324.59h-.907c-2.856.022-3.4.521-3.83,1.949h-.249c.135-1.089.339-2.153.408-3.287.408.136,1,.59,5.553.59,4.307,0,5.371-.046,6.527-.5a23.868,23.868,0,0,0-.5,3.059h-.249c-.069-1.745-.816-1.791-4.4-1.813V336.76c0,2.7.09,2.992,1.133,3.151Z" transform="translate(-504.362 -323.252)" fill="#b77729"/>
      <path id="Path_66" data-name="Path 66" d="M575.2,336.442c-.023,1.723-.114,2.516-.114,3.785-1.678-.045-3.105-.068-5.281-.068h-2.2c-.952,0-2.085.023-2.493.045v-.226c1.179-.2,1.225-.635,1.225-3.128v-9.814c0-2.7-.114-2.947-1.247-3.151v-.226c.476.023,1.541.045,2.765.045,3.105,0,5.847,0,7.207-.045,0,0,.023.454.023,1.2,0,.77-.023,1.586-.068,2.289H574.8c-.545-2.539-1.474-2.7-4.034-2.7a9.4,9.4,0,0,0-2.063.114v6.709h1.541c1.972,0,2.607-.227,2.992-1.836h.226c-.023.68-.068,1.292-.068,2.2,0,.93.045,1.541.068,2.2h-.226c-.341-1.745-1.224-1.836-2.992-1.836H568.7v7.3a10.2,10.2,0,0,0,1.994.114c2.562,0,3.558-.158,4.283-2.969Z" transform="translate(-507.019 -323.319)" fill="#b77729"/>
      <path id="Path_67" data-name="Path 67" d="M591.633,340.136a2.955,2.955,0,0,1-1.089.114,3.624,3.624,0,0,1-2.333-.679c-.771-.612-1.451-1.837-2.72-4.239a25.209,25.209,0,0,0-1.428-2.516h-1.043v4.011c0,2.7.09,2.992,1.133,3.151v.226c-.475-.023-1.5-.045-2.313-.045s-1.812.023-2.311.045v-.226c1.043-.16,1.133-.454,1.133-3.174v-9.724c0-2.493-.045-3.014-1.111-3.2v-.226c.635.045,1.5.045,2.426.045.951,0,2.039-.045,2.607-.045,3.74,0,5.666,1.9,5.666,4.488,0,1.994-1.156,3.581-3.74,4.306.862,1.383,3.513,6.982,5.123,7.526Zm-7.547-7.865c2.7,0,3.581-1.383,3.581-3.763,0-2.628-1.065-4.238-3.309-4.238a4.577,4.577,0,0,0-1.337.2v7.8Z" transform="translate(-509.394 -323.319)" fill="#b77729"/>
    </g>
  </g>
</svg>
