<svg xmlns="http://www.w3.org/2000/svg" width="1152.89" height="159.176" viewBox="0 0 1152.89 159.176">
  <g id="pattern" transform="translate(0 0)">
    <path id="Path_7926" data-name="Path 7926" d="M41.21,0,0,41.22V79.59L41.21,38.37,82.43,79.59l19.18-19.18L82.43,41.23Z" fill="#5b1d3c"/>
    <path id="Path_7927" data-name="Path 7927" d="M123.651,0l-60.4,60.409L82.43,79.588l41.223-41.217,41.236,41.217,19.19-19.179Z" fill="#5b1d3c"/>
    <path id="Path_7928" data-name="Path 7928" d="M22.033,140l19.179,19.178,41.216-41.216,41.223,41.216L142.83,140,82.43,79.6Z" fill="#5b1d3c"/>
    <path id="Path_7929" data-name="Path 7929" d="M205.88,0l-60.4,60.409,19.186,19.179,41.217-41.217,41.222,41.217,19.179-19.179Z" fill="#5b1d3c"/>
    <path id="Path_7930" data-name="Path 7930" d="M288.356,0,227.917,60.409,247.1,79.588l41.252-41.217,41.156,41.217,19.176-19.179Z" fill="#5b1d3c"/>
    <path id="Path_7931" data-name="Path 7931" d="M186.738,140l19.179,19.179L247.1,117.96l41.252,41.216L307.539,140l-60.4-60.4Z" fill="#5b1d3c"/>
    <path id="Path_7932" data-name="Path 7932" d="M370.549,0l-60.4,60.409,19.185,19.179,41.217-41.217,41.223,41.217,19.179-19.179Z" fill="#5b1d3c"/>
    <path id="Path_7933" data-name="Path 7933" d="M452.98,0l-60.4,60.409,19.187,19.179L452.98,38.371,494.2,79.588l19.179-19.179Z" fill="#5b1d3c"/>
    <path id="Path_7934" data-name="Path 7934" d="M351.363,140l19.179,19.179,41.231-41.216,41.208,41.216L472.163,140l-60.4-60.4Z" fill="#5b1d3c"/>
    <path id="Path_7935" data-name="Path 7935" d="M535.225,0l-60.4,60.409L494,79.588l41.223-41.217L576.45,79.588l19.183-19.179Z" fill="#5b1d3c"/>
    <path id="Path_7936" data-name="Path 7936" d="M617.664,0l-60.4,60.409,19.185,19.179,41.216-41.217,41.216,41.217,19.186-19.179Z" fill="#5b1d3c"/>
    <path id="Path_7937" data-name="Path 7937" d="M516.046,140l19.185,19.179,41.216-41.216,41.224,41.216L636.849,140l-60.4-60.4Z" fill="#5b1d3c"/>
    <path id="Path_7938" data-name="Path 7938" d="M699.917,0,639.491,60.409,658.67,79.588l41.246-41.217,41.216,41.217,19.186-19.179Z" fill="#5b1d3c"/>
    <path id="Path_7939" data-name="Path 7939" d="M782.333,0l-60.4,60.409L741.11,79.588l41.225-41.217,41.214,41.217,19.187-19.179Z" fill="#5b1d3c"/>
    <path id="Path_7940" data-name="Path 7940" d="M680.715,140l19.2,19.179,41.2-41.216,41.215,41.216L801.516,140l-60.4-60.4Z" fill="#5b1d3c"/>
    <path id="Path_7941" data-name="Path 7941" d="M864.54,0l-60.4,60.4,19.247,19.186L864.542,38.37l41.215,41.218,19.179-19.179Z" fill="#5b1d3c"/>
    <path id="Path_7942" data-name="Path 7942" d="M947,0,886.6,60.4l19.186,19.179L947,38.371l41.223,41.216L1007.4,60.408Z" fill="#5b1d3c"/>
    <path id="Path_7943" data-name="Path 7943" d="M845.383,140l19.156,19.179,41.247-41.216L947,159.176,966.186,140l-60.4-60.4Z" fill="#5b1d3c"/>
    <path id="Path_7944" data-name="Path 7944" d="M1029.231,0l-60.4,60.4,19.179,19.186,41.224-41.216,41.225,41.218,19.178-19.179Z" fill="#5b1d3c"/>
    <path id="Path_7945" data-name="Path 7945" d="M1111.67,0l-60.4,60.4,19.19,19.18,19.18-19.17,22.04-22.04,41.21,41.22V41.21Z" fill="#5b1d3c"/>
    <path id="Path_7946" data-name="Path 7946" d="M1010.052,140l19.185,19.179,41.217-41.216,41.222,41.216L1130.855,140l-60.4-60.4Z" fill="#5b1d3c"/>
  </g>
</svg>
