<svg id="poziom" xmlns="http://www.w3.org/2000/svg" width="24" height="24" viewBox="0 0 24 24">
  <g id="Group_188" data-name="Group 188">
    <rect id="Rectangle_100" data-name="Rectangle 100" width="24" height="24" fill="none"/>
  </g>
  <g id="Group_190" data-name="Group 190">
    <g id="Group_189" data-name="Group 189">
      <path id="Path_7555" data-name="Path 7555" d="M23,11.99,20.56,9.2l.34-3.69-3.61-.82L15.4,1.5,12,2.96,8.6,1.5,6.71,4.69,3.1,5.5l.34,3.7L1,11.99l2.44,2.79-.34,3.7,3.61.82L8.6,22.5,12,21.03l3.4,1.46,1.89-3.19,3.61-.82-.34-3.69Zm-3.95,1.48-.56.65.08.85.18,1.95-1.9.43-.84.19-.44.74-.99,1.68-1.78-.77-.8-.34-.79.34-1.78.77-.99-1.67L8,17.55l-.84-.19-1.9-.43.18-1.96.08-.85-.56-.65L3.67,12l1.29-1.48.56-.65-.09-.86L5.25,7.07l1.9-.43.84-.19.44-.74.99-1.68,1.78.77.8.34.79-.34,1.78-.77.99,1.68.44.74.84.19,1.9.43-.18,1.95-.08.85.56.65,1.29,1.47Z" fill="#b67632"/>
      <path id="Path_7556" data-name="Path 7556" d="M10.09,13.75,7.77,11.42,6.29,12.91l3.8,3.81,7.34-7.36L15.95,7.87Z" fill="#b67632"/>
    </g>
  </g>
</svg>
