<svg id="prestiz" xmlns="http://www.w3.org/2000/svg" xmlns:xlink="http://www.w3.org/1999/xlink" width="174.185" height="113.716" viewBox="0 0 174.185 113.716">
  <defs>
    <clipPath id="clip-path">
      <rect id="Rectangle_193" data-name="Rectangle 193" width="174.185" height="113.716" fill="none"/>
    </clipPath>
    <clipPath id="clip-path-3">
      <rect id="Rectangle_186" data-name="Rectangle 186" width="22.756" height="45.385" transform="translate(151.429 11.792)" fill="none"/>
    </clipPath>
    <clipPath id="clip-path-4">
      <rect id="Rectangle_183" data-name="Rectangle 183" width="22.694" height="22.694" transform="translate(151.429 34.483)" fill="none"/>
    </clipPath>
    <clipPath id="clip-path-5">
      <rect id="Rectangle_185" data-name="Rectangle 185" width="22.694" height="22.694" transform="translate(151.491 11.792)" fill="none"/>
    </clipPath>
    <clipPath id="clip-path-6">
      <rect id="Rectangle_187" data-name="Rectangle 187" width="44.905" height="29.583" transform="translate(15.389 29.583)" fill="none"/>
    </clipPath>
    <clipPath id="clip-path-7">
      <rect id="Rectangle_188" data-name="Rectangle 188" width="75.548" height="29.583" fill="none"/>
    </clipPath>
    <clipPath id="clip-path-8">
      <rect id="Rectangle_192" data-name="Rectangle 192" width="134.322" height="92.235" transform="translate(30.312 5.418)" fill="none"/>
    </clipPath>
  </defs>
  <g id="Group_384" data-name="Group 384" clip-path="url(#clip-path)">
    <g id="Group_381" data-name="Group 381">
      <g id="Group_380" data-name="Group 380" clip-path="url(#clip-path)">
        <g id="Group_373" data-name="Group 373" opacity="0.7">
          <g id="Group_372" data-name="Group 372">
            <g id="Group_371" data-name="Group 371" clip-path="url(#clip-path-3)">
              <g id="Group_367" data-name="Group 367" opacity="0.4">
                <g id="Group_366" data-name="Group 366">
                  <g id="Group_365" data-name="Group 365" clip-path="url(#clip-path-4)">
                    <rect id="Rectangle_182" data-name="Rectangle 182" width="16.093" height="16.001" transform="matrix(0.707, -0.707, 0.707, 0.707, 151.429, 45.863)" fill="#561436"/>
                  </g>
                </g>
              </g>
              <g id="Group_370" data-name="Group 370" opacity="0.4">
                <g id="Group_369" data-name="Group 369">
                  <g id="Group_368" data-name="Group 368" clip-path="url(#clip-path-5)">
                    <rect id="Rectangle_184" data-name="Rectangle 184" width="16.093" height="16.001" transform="matrix(0.707, -0.707, 0.707, 0.707, 151.491, 23.172)" fill="#561436"/>
                  </g>
                </g>
              </g>
            </g>
          </g>
        </g>
        <g id="Group_376" data-name="Group 376" opacity="0.4">
          <g id="Group_375" data-name="Group 375">
            <g id="Group_374" data-name="Group 374" clip-path="url(#clip-path-6)">
              <path id="Path_7796" data-name="Path 7796" d="M37.841,43.844,53.163,59.166l7.13-7.131L37.841,29.583,15.389,52.035l7.13,7.131Z" fill="#d1934c"/>
            </g>
          </g>
        </g>
        <g id="Group_379" data-name="Group 379" opacity="0.4">
          <g id="Group_378" data-name="Group 378">
            <g id="Group_377" data-name="Group 377" clip-path="url(#clip-path-7)">
              <path id="Path_7797" data-name="Path 7797" d="M22.452,14.261,37.774,29.583l7.13-7.131L22.452,0,0,22.452l7.13,7.131Z" fill="#d1934c"/>
              <path id="Path_7798" data-name="Path 7798" d="M53.1,14.261,68.418,29.583l7.13-7.131L53.1,0,30.644,22.452l7.13,7.131Z" fill="#d1934c"/>
            </g>
          </g>
        </g>
      </g>
    </g>
    <rect id="Rectangle_190" data-name="Rectangle 190" width="42.011" height="2.284" transform="translate(78.298 111.432)" fill="#ab621a"/>
    <rect id="Rectangle_191" data-name="Rectangle 191" width="42.01" height="2.284" transform="translate(42.611 99.939)" fill="#ab621a"/>
    <g id="Group_383" data-name="Group 383">
      <g id="Group_382" data-name="Group 382" clip-path="url(#clip-path-8)">
        <path id="Path_7799" data-name="Path 7799" d="M149.387,75.323c4.125-1.7,7.231-5.617,10.966-12.378-10.025-5.878-21-2.377-28.136,10.163" fill="none" stroke="#561436" stroke-width="2"/>
        <path id="Path_7800" data-name="Path 7800" d="M117.922,88.373c7.069,6.754,17.563,11.336,30.795-2.512C139.97,77.5,127.892,77.936,117.922,88.373Z" fill="none" stroke="#561436" stroke-width="2"/>
        <path id="Path_7801" data-name="Path 7801" d="M153.35,53.088c4.37-3.036,7.655-8.677,8.314-18.607-12.07-.8-21.058,7.281-22.017,21.685" fill="none" stroke="#561436" stroke-width="2"/>
        <path id="Path_7802" data-name="Path 7802" d="M150.55,29.319c2.95-4.438,3.926-10.9.868-20.388-11.512,3.715-16.877,14.55-12.45,28.287" fill="none" stroke="#561436" stroke-width="2"/>
        <path id="Path_7803" data-name="Path 7803" d="M45.559,75.323c-4.125-1.7-7.231-5.617-10.966-12.378,10.025-5.878,21-2.377,28.136,10.163" fill="none" stroke="#561436" stroke-width="2"/>
        <path id="Path_7804" data-name="Path 7804" d="M77.026,88.373c-7.072,6.754-17.566,11.336-30.8-2.512C54.975,77.5,67.054,77.936,77.026,88.373Z" fill="none" stroke="#561436" stroke-width="2"/>
        <path id="Path_7805" data-name="Path 7805" d="M41.6,53.088c-4.37-3.036-7.655-8.677-8.317-18.607,12.077-.8,21.064,7.282,22.02,21.685" fill="none" stroke="#561436" stroke-width="2"/>
        <path id="Path_7806" data-name="Path 7806" d="M44.4,29.319c-2.953-4.434-3.925-10.9-.871-20.388,11.516,3.715,16.88,14.547,12.452,28.287" fill="none" stroke="#561436" stroke-width="2"/>
        <path id="Path_7807" data-name="Path 7807" d="M97.472,91.9s30.7-16.953,30.7-48.646v-12c-14.156-.924-30.7-16.746-30.7-16.746S80.927,30.336,66.772,31.26v12C66.772,74.951,97.472,91.9,97.472,91.9Z" fill="none" stroke="#561436" stroke-linejoin="round" stroke-width="2"/>
        <path id="Path_7808" data-name="Path 7808" d="M97.5,31.334l4.976,13.14,13.173.689-10.1,9.238,3.166,13.14L97.5,60.535,86.279,67.541,89.445,54.4l-10.1-9.238,13.173-.689Z" fill="#ab621a"/>
      </g>
    </g>
  </g>
</svg>
