<svg xmlns="http://www.w3.org/2000/svg" width="20.307" height="20.286" viewBox="0 0 20.307 20.286">
  <g id="Tel" transform="translate(1056.086 1647.51)">
    <path id="Path_4860" data-name="Path 4860" d="M-811.383-1402.227a3.755,3.755,0,0,0,1.516-3.323,3.878,3.878,0,0,0-1.87-2.476,4.67,4.67,0,0,0-3.115-.853,2.5,2.5,0,0,0-2.07,1.229,8.652,8.652,0,0,1-3.789-2.507,6.912,6.912,0,0,1-2.011-3.527s1.178-1.034,1.283-1.749a5.352,5.352,0,0,0-1.364-3.818,4.275,4.275,0,0,0-2.794-1.833,3.514,3.514,0,0,0-2.955,1.454,5.313,5.313,0,0,0-.285,4.21c.624,2.281,2.479,4.051,4.018,5.846a32.064,32.064,0,0,0,5.172,4.878,13.415,13.415,0,0,0,4.5,2.6c1.217.3,2.717.567,3.76-.129Zm0,0" transform="translate(-226.44 -225.919)" fill="#6b1f45"/>
    <path id="Path_4861" data-name="Path 4861" d="M-811.383-1402.227a3.755,3.755,0,0,0,1.516-3.323,3.878,3.878,0,0,0-1.87-2.476,4.67,4.67,0,0,0-3.115-.853,2.5,2.5,0,0,0-2.07,1.229,8.652,8.652,0,0,1-3.789-2.507,6.912,6.912,0,0,1-2.011-3.527s1.178-1.034,1.283-1.749a5.352,5.352,0,0,0-1.364-3.818,4.275,4.275,0,0,0-2.794-1.833,3.514,3.514,0,0,0-2.955,1.454,5.313,5.313,0,0,0-.285,4.21c.624,2.281,2.479,4.051,4.018,5.846a32.064,32.064,0,0,0,5.172,4.878,13.415,13.415,0,0,0,4.5,2.6c1.217.3,2.717.567,3.76-.129Zm0,0" transform="translate(-226.44 -225.919)" fill="#6b1f45" stroke="#f5f7f8" stroke-width="1"/>
  </g>
</svg>
