<svg xmlns="http://www.w3.org/2000/svg" width="263" height="170" viewBox="0 0 263 170">
  <g id="total_logo" transform="translate(-1381 -3306)">
    <rect id="Rectangle_226" data-name="Rectangle 226" width="263" height="170" transform="translate(1381 3306)" fill="#fff" opacity="0"/>
    <g id="total_logo-2" data-name="total_logo" transform="translate(1436 3363.863)">
      <path id="Path_7830" data-name="Path 7830" d="M276.031,82.537c-6.27,0-9.873,2.7-9.873,7.4,0,4.65,3.6,7.342,9.873,7.342s9.862-2.691,9.862-7.342c0-4.7-3.585-7.4-9.862-7.4m0,11.331c-3.429,0-5.165-1.313-5.165-3.931,0-2.649,1.737-3.976,5.165-3.976s5.177,1.327,5.177,3.976c0,2.618-1.75,3.931-5.177,3.931M287.177,82.9v3.145h5.945V95.8c0,.933,1.418,1.272,2.617,1.272s2.624-.324,2.624-1.272v-9.76H304.3V82.9ZM335.93,93.673a4.89,4.89,0,0,1-3-.694,2.792,2.792,0,0,1-.807-2.176V83.916c0-.917-1.346-1.219-2.5-1.219s-2.52.3-2.52,1.2v6.673c0,2.55.814,4.336,2.446,5.309,2.012,1.167,5.664,1.124,9.177,1.077H343.1l.012-.632V93.673Zm-81.2-1.044c0,2.488,2.091,4.183,5.642,4.472v-15h7.967V78.637H247.577v3.468h7.154Zm70.339,4.334-.126-.567c-1.168-5.765-7.719-12.353-9.08-13.326a2.609,2.609,0,0,0-1.512-.39,2.656,2.656,0,0,0-1.536.39c-1.353.974-7.913,7.561-9.064,13.327l-.13.566h4.64l.084-.406a14.608,14.608,0,0,1,.894-2.615h10.2a13.581,13.581,0,0,1,.884,2.615l.1.406Zm-14.19-5.981a25.528,25.528,0,0,1,3.472-4.214,26.6,26.6,0,0,1,3.452,4.214Z" transform="translate(-190.455 -60.493)" fill="#e4032e"/>
      <g id="Group_436" data-name="Group 436" transform="translate(0 0)">
        <path id="Path_7831" data-name="Path 7831" d="M68.705,114.9q-.049-.151-.108-.3c-3.431,3.917-11.854,6.451-19.431,5.886-4.465-.331-12.732-2.64-16.9-5.194a37.821,37.821,0,0,0,15.4,9.163c6.937,2.059,14.34,1.921,18.511-.253,3.06-2.065,3.751-5.745,2.528-9.3" transform="translate(-24.821 -88.162)" fill="#f49600"/>
        <path id="Path_7832" data-name="Path 7832" d="M53.662,2.113c13.662,8.063,5.531,33.442-5.34,41.594C38.2,51.291,27.447,47.8,25.114,40.805a8.41,8.41,0,0,0,9.677,2.925c9.985-4,15.126-22.089,15.791-28.373.446-5.406-.262-9.034-2.137-11.325C46.295,1.76,43,.659,38.178,2.172,41.5-.551,48.6-.871,53.662,2.113" transform="translate(-19.32 0)" fill="#164194"/>
        <path id="Path_7833" data-name="Path 7833" d="M45.807,47.728q.084-.047.163-.1c0-.006.019-.013.028-.019a6.82,6.82,0,0,0,.818-.627c.114-.109.238-.222.355-.351,5.316-5.392,6.443-20.387-6.646-27.489-4.662-2.528-15.5-6.067-26.311-.609A20.277,20.277,0,0,0,4.966,29.181c1.468-2.418,4-4.059,9-4.767,4.987-.623,11.857.152,18.578,2.523a36.563,36.563,0,0,1,10.582,5.808A14.738,14.738,0,0,1,47.6,38.489c.04.1.075.2.108.3,1.223,3.56.532,7.24-2.526,9.3,0,.005,0,0,0,0q.221-.114.434-.242.03-.018.059-.039a1.311,1.311,0,0,0,.135-.081" transform="translate(-3.82 -12.045)" fill="#e4032e"/>
        <path id="Path_7834" data-name="Path 7834" d="M7.8,77.279a16.815,16.815,0,0,0,1.188,1.505C11.62,72.613,26,68.6,30.24,68.649c-9.527-3.066-18.867-1.6-22.624,1.655-1.364,1.518-1.787,3.8.187,6.975" transform="translate(-4.967 -51.515)" fill="#f49600"/>
        <path id="Path_7835" data-name="Path 7835" d="M30.878,102.4c-7.651-.428-18.806-3.381-26.708-12.332q-.068-.085-.143-.163A16.509,16.509,0,0,1,2.836,88.4c-1.975-3.178-1.549-5.457-.186-6.977a6.988,6.988,0,0,0-.9.949C-.269,84.992-.511,89.237.868,93.735c3.013,9.769,16.177,15.645,26.869,14.029a24.543,24.543,0,0,0,12.882-6.441,27.547,27.547,0,0,1-9.741,1.082" transform="translate(0 -62.64)" fill="#4a96d2"/>
      </g>
    </g>
  </g>
</svg>
