<svg xmlns="http://www.w3.org/2000/svg" width="120.1" height="217.581" viewBox="0 0 120.1 217.581">
  <g id="marcus_first" transform="translate(0)">
    <g id="Group_2" data-name="Group 2" transform="translate(0.013 144.701)">
      <path id="Path_1" data-name="Path 1" d="M73.851,278.962c-.636-.03-1.846-.06-2.876-.06-1.119,0-2.391.03-3.057.06v-.3c.968-.151,1.241-.484,1.241-1.241a18.04,18.04,0,0,0-.3-2.118l-2.088-12.166L60.231,278.9H59.9l-6.84-15.8L51.153,274.06a13.848,13.848,0,0,0-.241,2.27c0,1.3.424,2.057,1.6,2.33v.3c-.666-.03-1.876-.06-3-.06-1.029,0-1.362.03-2,.06v-.3c1.453-.424,1.937-1.755,2.482-4.812l3.116-17.4h.454l7.536,17.4,7.293-17.4h.454l3.238,18.975c.3,1.785.606,2.9,1.756,3.238Z" transform="translate(-46.526 -256.446)" fill="#002c1f"/>
      <path id="Path_2" data-name="Path 2" d="M97.188,278.962c-.636-.03-1.937-.06-2.966-.06-1.12,0-2.694.03-3.36.06v-.3c.969-.121,1.3-.515,1.3-1.15a12.9,12.9,0,0,0-.817-3.148l-1-3.147c-1.15-.031-2.271-.031-3.42-.031-1.271,0-2.179,0-3.117.031l-.636,1.694a14.285,14.285,0,0,0-1.21,4.237,1.364,1.364,0,0,0,1.271,1.513v.3c-.666-.03-1.846-.06-2.966-.06-1.029,0-1.6.03-2.21.06v-.3c1.756-.515,2.361-1.483,4.268-6.476l6.022-15.737h.635l5.963,18.672c.817,2.542,1.18,3.268,2.24,3.542Zm-7.2-8.867-2.633-8.323L84.235,270.1c.786.03,1.542.03,2.693.03C87.805,270.126,88.865,270.126,89.984,270.1Z" transform="translate(-51.551 -256.446)" fill="#002c1f"/>
      <path id="Path_3" data-name="Path 3" d="M119.035,278.955a3.967,3.967,0,0,1-1.452.15,4.839,4.839,0,0,1-3.117-.907c-1.029-.817-1.937-2.451-3.632-5.659a33.5,33.5,0,0,0-1.906-3.359h-1.392v5.357c0,3.6.12,4,1.513,4.206v.3c-.635-.03-2-.06-3.087-.06s-2.422.03-3.087.06v-.3c1.393-.211,1.513-.606,1.513-4.237V261.523c0-3.328-.06-4.025-1.483-4.267v-.3c.847.06,2,.06,3.239.06,1.27,0,2.723-.06,3.48-.06,4.993,0,7.566,2.542,7.566,5.991,0,2.664-1.543,4.782-4.993,5.75,1.15,1.846,4.691,9.322,6.839,10.048Zm-10.077-10.5c3.6,0,4.782-1.845,4.782-5.023,0-3.511-1.423-5.66-4.42-5.66a6.121,6.121,0,0,0-1.785.272v10.41Z" transform="translate(-55.635 -256.53)" fill="#002c1f"/>
      <path id="Path_4" data-name="Path 4" d="M142.229,273.271c-.121,1.12-.212,2.876-.212,4.328a17.912,17.912,0,0,1-7.354,1.664c-7.354,0-11.681-5.478-11.681-11.289,0-5.447,3.844-11.167,11.742-11.167a35.181,35.181,0,0,1,7.293,1.09c-.06.846-.09,2.058-.09,3s.03,1.574.06,2.088h-.3a6.464,6.464,0,0,0-6.719-5.356c-4.54,0-8.383,3.511-8.383,10.35,0,7.172,4.237,10.441,8.262,10.441a7.468,7.468,0,0,0,7.082-5.2Z" transform="translate(-58.943 -256.506)" fill="#002c1f"/>
      <path id="Path_5" data-name="Path 5" d="M164.755,264.58c0-6.446-.212-6.718-2.27-7.293v-.3c.666.03,1.664.06,2.754.06,1.06,0,1.846-.03,2.482-.06v.3c-1.876.544-1.876.878-1.876,7.536v5.9c0,6.749-3.026,8.655-7.566,8.655-5.054,0-7.989-2.36-7.989-8.413V261.7c0-3.782-.091-4.207-1.514-4.448v-.3c.666.03,1.967.06,3.057.06s2.572-.03,3.208-.06v.3c-1.483.211-1.6.666-1.6,4.418v9.049c0,5.72,1.483,7.6,5.266,7.6,4.328,0,6.053-2.482,6.053-7.627Z" transform="translate(-63.188 -256.53)" fill="#002c1f"/>
      <path id="Path_6" data-name="Path 6" d="M185.077,261.621c-.666-3.177-2.421-4.358-4.54-4.358s-3.662,1.15-3.662,3.42c0,5.628,9.382,4.811,9.382,12.015,0,3.722-2.482,6.507-6.719,6.507-1.876,0-3-.545-4.358-.545a2.6,2.6,0,0,0-.848.091s.03-.454.03-.908c0-.878-.12-1.816-.12-2.724a5.943,5.943,0,0,1,.333-2.118h.3a9.1,9.1,0,0,0,.12,1.3,4.4,4.4,0,0,0,4.6,4.054,3.753,3.753,0,0,0,4.116-3.934c0-5.871-9.352-5.326-9.352-12.045a5.77,5.77,0,0,1,6.114-5.932c1.6,0,2.632.485,3.934.485a2.594,2.594,0,0,0,1.059-.182c-.06.757-.09,1.7-.09,2.633,0,.485,0,1.362.03,2.239Z" transform="translate(-67.378 -256.446)" fill="#002c1f"/>
      <path id="Path_7" data-name="Path 7" d="M62.386,307.709c-.533-.025-1.626-.05-2.49-.05-.94,0-2.262.025-2.82.05v-.254c.814-.1,1.093-.432,1.093-.965a10.831,10.831,0,0,0-.687-2.643l-.838-2.643c-.966-.025-1.906-.025-2.871-.025-1.067,0-1.83,0-2.617.025l-.534,1.423a11.985,11.985,0,0,0-1.015,3.557,1.145,1.145,0,0,0,1.067,1.27v.254c-.559-.025-1.551-.05-2.49-.05-.864,0-1.347.025-1.854.05v-.254c1.473-.432,1.982-1.245,3.582-5.436l5.056-13.212H55.5l5.005,15.676c.687,2.135.992,2.744,1.881,2.973Zm-6.047-7.444-2.21-6.987-2.617,6.987c.661.025,1.3.025,2.262.025C54.511,300.29,55.4,300.29,56.339,300.265Z" transform="translate(-46.33 -261.771)" fill="#002c1f"/>
      <path id="Path_8" data-name="Path 8" d="M82.9,302.933c-.1.94-.178,2.413-.178,3.633a15.027,15.027,0,0,1-6.174,1.4,9.393,9.393,0,0,1-9.806-9.476c0-4.573,3.227-9.375,9.857-9.375a29.5,29.5,0,0,1,6.123.915c-.051.711-.076,1.728-.076,2.515s.025,1.321.051,1.754h-.254a5.428,5.428,0,0,0-5.641-4.5c-3.811,0-7.038,2.947-7.038,8.689,0,6.021,3.557,8.765,6.937,8.765a6.27,6.27,0,0,0,5.945-4.37Z" transform="translate(-49.688 -261.821)" fill="#002c1f"/>
      <path id="Path_9" data-name="Path 9" d="M102.2,307.709c-.534-.025-1.626-.05-2.49-.05-.94,0-2.262.025-2.82.05v-.254c.814-.1,1.093-.432,1.093-.965a10.814,10.814,0,0,0-.686-2.643l-.838-2.643c-.966-.025-1.906-.025-2.871-.025-1.067,0-1.829,0-2.617.025l-.533,1.423a11.994,11.994,0,0,0-1.016,3.557,1.145,1.145,0,0,0,1.067,1.27v.254c-.559-.025-1.55-.05-2.49-.05-.864,0-1.347.025-1.855.05v-.254c1.474-.432,1.982-1.245,3.582-5.436l5.056-13.212h.534l5.005,15.676c.686,2.135.991,2.744,1.881,2.973Zm-6.047-7.444-2.211-6.987-2.617,6.987c.661.025,1.3.025,2.262.025C94.325,300.29,95.214,300.29,96.154,300.265Z" transform="translate(-52.881 -261.771)" fill="#002c1f"/>
      <path id="Path_10" data-name="Path 10" d="M106.856,307.525c1.448-.228,1.524-.508,1.524-3.912V293.424c0-3.4-.151-3.684-1.524-3.937v-.254c.559.025,1.8.05,2.846.05,1.016,0,2.846-.025,3.48-.025,8.562,0,11.332,4.751,11.332,9.375,0,4.954-3.2,9.171-10.112,9.171-.94,0-3.176-.075-4.725-.075-.889,0-2.262.025-2.82.05Zm4.166-.686a16.385,16.385,0,0,0,3.1.28c4.548,0,7.394-2.338,7.394-8.436,0-7.368-4.141-8.74-8.028-8.74a9.925,9.925,0,0,0-2.465.254Z" transform="translate(-56.29 -261.841)" fill="#002c1f"/>
      <path id="Path_11" data-name="Path 11" d="M141.7,303.562c-.025,1.932-.127,2.82-.127,4.242-1.88-.05-3.48-.075-5.92-.075h-2.464c-1.068,0-2.338.025-2.8.05v-.254c1.321-.228,1.373-.711,1.373-3.506v-11c0-3.023-.128-3.3-1.4-3.531v-.254c.533.025,1.728.05,3.1.05,3.48,0,6.554,0,8.08-.05,0,0,.025.507.025,1.346,0,.864-.025,1.779-.076,2.566h-.255c-.609-2.846-1.651-3.023-4.522-3.023a10.617,10.617,0,0,0-2.312.127v7.521h1.728c2.211,0,2.922-.255,3.354-2.059h.253c-.025.763-.075,1.449-.075,2.465,0,1.042.05,1.728.075,2.465h-.253c-.382-1.957-1.373-2.059-3.354-2.059h-1.728v8.182a11.54,11.54,0,0,0,2.236.127c2.871,0,3.988-.178,4.8-3.328Z" transform="translate(-60.159 -261.841)" fill="#002c1f"/>
      <path id="Path_12" data-name="Path 12" d="M167.253,307.709c-.533-.025-1.549-.05-2.414-.05-.94,0-2.007.025-2.566.05v-.254c.813-.127,1.042-.406,1.042-1.042a15.181,15.181,0,0,0-.255-1.779l-1.752-10.213-5.489,13.237h-.279L149.8,294.4l-1.6,9.2a11.624,11.624,0,0,0-.2,1.906c0,1.092.356,1.728,1.347,1.956v.254c-.559-.025-1.575-.05-2.516-.05-.863,0-1.143.025-1.677.05v-.254c1.22-.355,1.626-1.473,2.084-4.039l2.617-14.609h.381l6.326,14.609,6.123-14.609h.381l2.719,15.93c.255,1.5.509,2.438,1.474,2.718Z" transform="translate(-62.591 -261.771)" fill="#002c1f"/>
      <path id="Path_13" data-name="Path 13" d="M180.671,307.779c-.559-.025-1.7-.05-2.617-.05s-2.008.025-2.566.05v-.254c1.042-.177,1.271-.508,1.271-2.947v-3l-4.853-9.628c-.915-1.8-1.3-2.338-2.058-2.465v-.254c.534.025,1.932.05,2.9.05s2.211-.025,2.769-.05v.254c-.737.127-1.144.33-1.144.94a4.385,4.385,0,0,0,.585,1.728l3.862,7.876,3.023-6.149c.889-1.8,1.22-2.515,1.22-3.226,0-.61-.254-1.017-1.093-1.169v-.254c.559.025,1.3.05,2.211.05.889,0,1.448-.025,1.982-.05v.254c-1.219.381-1.5.94-3.455,4.852l-3.3,6.58v3.659c0,2.439.2,2.77,1.27,2.947Z" transform="translate(-66.655 -261.841)" fill="#002c1f"/>
    </g>
    <line id="Line_1" data-name="Line 1" x2="120.1" transform="translate(0 195.556)" fill="none" stroke="#789f90" stroke-width="1.292"/>
    <path id="Path_14" data-name="Path 14" d="M108.761,119.293l26.675-26.675,18.555,18.554V83.244H63.532v27.929L82.086,92.618Z" transform="translate(-49.148 -83.244)" fill="#002c1f"/>
    <path id="Path_15" data-name="Path 15" d="M108.782,150.858,82.106,124.183,63.655,142.635a76.846,76.846,0,0,0,4.323,21.915h0a76.813,76.813,0,0,0,9.178,17.936l31.626-31.627,31.587,31.588a75.4,75.4,0,0,0,9.216-17.9h0a76.818,76.818,0,0,0,4.323-21.915l-18.452-18.452Z" transform="translate(-49.168 -89.98)" fill="#285c4d"/>
    <path id="Path_16" data-name="Path 16" d="M93.661,205.891a196.3,196.3,0,0,0,20.058,16.578,160.305,160.305,0,0,0,19.989-16.647l-19.989-19.989Z" transform="translate(-54.106 -100.125)" fill="#789f90"/>
    <g id="Group_3" data-name="Group 3" transform="translate(66.467 200.514)">
      <path id="Path_17" data-name="Path 17" d="M130.679,340.2c-.476-.023-1.563-.045-2.38-.045-.839,0-1.813.023-2.312.045v-.226c1.043-.16,1.134-.454,1.134-3.084v-9.9c0-2.652-.114-2.9-1.246-3.105v-.226c.43.023,1.36.045,2.243.045h1.066c2.968,0,5.19,0,6.46-.045,0,0,.022.43.022,1.043s-.022,1.814-.044,2.357h-.227c-.521-2.448-1.36-2.606-3.853-2.606a9.9,9.9,0,0,0-2.063.114v6.64h1.428c2.04,0,2.766-.181,3.06-1.972h.227c-.046.7-.069,1.428-.069,2.312s.023,1.45.069,2.109h-.227c-.317-1.541-.975-1.724-3.083-1.724h-1.405v4.987c0,2.607.136,2.9,1.2,3.06Z" transform="translate(-125.874 -323.319)" fill="#285c4d"/>
      <path id="Path_18" data-name="Path 18" d="M143.955,340.2c-.476-.023-1.5-.045-2.312-.045-.839,0-1.813.023-2.311.045v-.226c.952-.16,1.133-.454,1.133-2.63V326.515c0-2.176-.181-2.47-1.133-2.63v-.226c.5.023,1.472.045,2.311.045.817,0,1.836-.023,2.313-.045v.226c-.929.16-1.134.454-1.134,2.63v10.833c0,2.176.2,2.47,1.134,2.63Z" transform="translate(-128.089 -323.319)" fill="#285c4d"/>
      <path id="Path_19" data-name="Path 19" d="M159.548,340.136a2.951,2.951,0,0,1-1.088.114,3.625,3.625,0,0,1-2.334-.679c-.771-.612-1.451-1.837-2.72-4.239a25.179,25.179,0,0,0-1.428-2.516h-1.043v4.011c0,2.7.09,2.992,1.133,3.151v.226c-.475-.023-1.5-.045-2.312-.045s-1.813.023-2.312.045v-.226c1.043-.16,1.133-.454,1.133-3.174v-9.724c0-2.493-.045-3.014-1.111-3.2v-.226c.635.045,1.5.045,2.426.045.952,0,2.039-.045,2.607-.045,3.739,0,5.666,1.9,5.666,4.488,0,1.994-1.156,3.581-3.74,4.306.862,1.383,3.513,6.982,5.123,7.526ZM152,332.272c2.7,0,3.581-1.383,3.581-3.763,0-2.628-1.065-4.238-3.309-4.238a4.578,4.578,0,0,0-1.337.2v7.8Z" transform="translate(-129.424 -323.319)" fill="#285c4d"/>
      <path id="Path_20" data-name="Path 20" d="M171.351,327.155c-.5-2.379-1.814-3.264-3.4-3.264a2.455,2.455,0,0,0-2.744,2.562c0,4.216,7.026,3.6,7.026,9a4.67,4.67,0,0,1-5.031,4.873c-1.405,0-2.244-.408-3.264-.408a1.955,1.955,0,0,0-.634.068s.022-.34.022-.68c0-.657-.09-1.359-.09-2.04a4.448,4.448,0,0,1,.25-1.586h.226a6.68,6.68,0,0,0,.091.974,3.292,3.292,0,0,0,3.445,3.037,2.811,2.811,0,0,0,3.082-2.947c0-4.4-7-3.988-7-9.021a4.321,4.321,0,0,1,4.579-4.442c1.2,0,1.972.363,2.947.363a1.944,1.944,0,0,0,.793-.136c-.044.567-.068,1.27-.068,1.973,0,.363,0,1.019.023,1.677Z" transform="translate(-132.022 -323.256)" fill="#285c4d"/>
      <path id="Path_21" data-name="Path 21" d="M183.57,340.138c-.476-.023-1.5-.045-2.313-.045-.839,0-1.813.023-2.311.045v-.226c1.042-.16,1.133-.454,1.133-3.151V324.59h-.907c-2.856.022-3.4.521-3.83,1.949h-.249c.135-1.089.34-2.153.409-3.287.408.136,1,.59,5.552.59,4.307,0,5.372-.046,6.528-.5a23.731,23.731,0,0,0-.5,3.059h-.25c-.068-1.745-.815-1.791-4.4-1.813V336.76c0,2.7.091,2.992,1.134,3.151Z" transform="translate(-133.973 -323.252)" fill="#285c4d"/>
    </g>
  </g>
</svg>
