<svg xmlns="http://www.w3.org/2000/svg" width="120.369" height="217.853" viewBox="0 0 120.369 217.853">
  <g id="marcus_advanced" transform="translate(0)">
    <g id="Group_5" data-name="Group 5" transform="translate(0.283 144.701)">
      <path id="Path_22" data-name="Path 22" d="M275.812,278.962c-.636-.03-1.846-.06-2.876-.06-1.12,0-2.391.03-3.057.06v-.3c.968-.151,1.241-.484,1.241-1.241a18.037,18.037,0,0,0-.3-2.118l-2.088-12.166L262.192,278.9h-.333l-6.839-15.8-1.906,10.955a13.845,13.845,0,0,0-.241,2.27c0,1.3.423,2.057,1.6,2.33v.3c-.666-.03-1.877-.06-3-.06-1.029,0-1.362.03-2,.06v-.3c1.453-.424,1.937-1.755,2.482-4.812l3.116-17.4h.455l7.536,17.4,7.293-17.4h.454l3.238,18.975c.3,1.785.606,2.9,1.756,3.238Z" transform="translate(-248.487 -256.446)" fill="#3d3935"/>
      <path id="Path_23" data-name="Path 23" d="M299.148,278.962c-.636-.03-1.937-.06-2.966-.06-1.12,0-2.694.03-3.36.06v-.3c.969-.121,1.3-.515,1.3-1.15a12.9,12.9,0,0,0-.817-3.148l-1-3.147c-1.15-.031-2.271-.031-3.42-.031-1.271,0-2.179,0-3.117.031l-.636,1.694a14.287,14.287,0,0,0-1.21,4.237,1.364,1.364,0,0,0,1.27,1.513v.3c-.665-.03-1.845-.06-2.965-.06-1.029,0-1.6.03-2.21.06v-.3c1.756-.515,2.361-1.483,4.268-6.476l6.022-15.737h.635l5.963,18.672c.817,2.542,1.18,3.268,2.24,3.542Zm-7.2-8.867-2.633-8.323L286.2,270.1c.786.03,1.542.03,2.693.03C289.766,270.126,290.826,270.126,291.945,270.1Z" transform="translate(-253.512 -256.446)" fill="#3d3935"/>
      <path id="Path_24" data-name="Path 24" d="M321,278.955a3.967,3.967,0,0,1-1.452.15,4.839,4.839,0,0,1-3.117-.907c-1.029-.817-1.937-2.451-3.632-5.659a33.5,33.5,0,0,0-1.906-3.359H309.5v5.357c0,3.6.12,4,1.513,4.206v.3c-.636-.03-2-.06-3.087-.06s-2.422.03-3.087.06v-.3c1.393-.211,1.513-.606,1.513-4.237V261.523c0-3.328-.06-4.025-1.483-4.267v-.3c.847.06,2,.06,3.239.06,1.27,0,2.723-.06,3.48-.06,4.994,0,7.566,2.542,7.566,5.991,0,2.664-1.543,4.782-4.993,5.75,1.15,1.846,4.691,9.322,6.839,10.048Zm-10.077-10.5c3.6,0,4.781-1.845,4.781-5.023,0-3.511-1.422-5.66-4.419-5.66a6.121,6.121,0,0,0-1.785.272v10.41Z" transform="translate(-257.596 -256.53)" fill="#3d3935"/>
      <path id="Path_25" data-name="Path 25" d="M344.19,273.271c-.121,1.12-.212,2.876-.212,4.328a17.912,17.912,0,0,1-7.354,1.664c-7.354,0-11.681-5.478-11.681-11.289,0-5.447,3.844-11.167,11.742-11.167a35.181,35.181,0,0,1,7.293,1.09c-.06.846-.09,2.058-.09,3s.03,1.574.06,2.088h-.3a6.465,6.465,0,0,0-6.719-5.356c-4.54,0-8.383,3.511-8.383,10.35,0,7.172,4.237,10.441,8.262,10.441a7.468,7.468,0,0,0,7.082-5.2Z" transform="translate(-260.904 -256.506)" fill="#3d3935"/>
      <path id="Path_26" data-name="Path 26" d="M366.716,264.58c0-6.446-.212-6.718-2.27-7.293v-.3c.666.03,1.664.06,2.754.06,1.06,0,1.846-.03,2.482-.06v.3c-1.876.544-1.876.878-1.876,7.536v5.9c0,6.749-3.026,8.655-7.566,8.655-5.054,0-7.99-2.36-7.99-8.413V261.7c0-3.782-.09-4.207-1.513-4.448v-.3c.666.03,1.967.06,3.057.06s2.572-.03,3.208-.06v.3c-1.483.211-1.6.666-1.6,4.418v9.049c0,5.72,1.482,7.6,5.266,7.6,4.328,0,6.053-2.482,6.053-7.627Z" transform="translate(-265.149 -256.53)" fill="#3d3935"/>
      <path id="Path_27" data-name="Path 27" d="M387.037,261.621c-.665-3.177-2.42-4.358-4.539-4.358s-3.662,1.15-3.662,3.42c0,5.628,9.382,4.811,9.382,12.015,0,3.722-2.482,6.507-6.719,6.507-1.877,0-3-.545-4.358-.545a2.6,2.6,0,0,0-.848.091s.03-.454.03-.908c0-.878-.12-1.816-.12-2.724a5.945,5.945,0,0,1,.332-2.118h.3a9.1,9.1,0,0,0,.121,1.3,4.4,4.4,0,0,0,4.6,4.054,3.753,3.753,0,0,0,4.116-3.934c0-5.871-9.352-5.326-9.352-12.045a5.77,5.77,0,0,1,6.114-5.932c1.6,0,2.633.485,3.934.485a2.594,2.594,0,0,0,1.058-.182c-.06.757-.09,1.7-.09,2.633,0,.485,0,1.362.03,2.239Z" transform="translate(-269.339 -256.446)" fill="#3d3935"/>
      <path id="Path_28" data-name="Path 28" d="M264.347,307.709c-.533-.025-1.626-.05-2.49-.05-.94,0-2.262.025-2.821.05v-.254c.814-.1,1.093-.432,1.093-.965a10.83,10.83,0,0,0-.687-2.643l-.838-2.643c-.966-.025-1.906-.025-2.871-.025-1.068,0-1.83,0-2.617.025l-.534,1.423a11.994,11.994,0,0,0-1.016,3.557,1.145,1.145,0,0,0,1.068,1.27v.254c-.559-.025-1.551-.05-2.491-.05-.864,0-1.347.025-1.854.05v-.254c1.473-.432,1.982-1.245,3.582-5.436l5.056-13.212h.533l5.005,15.676c.687,2.135.992,2.744,1.881,2.973Zm-6.047-7.444-2.21-6.987-2.617,6.987c.661.025,1.3.025,2.262.025C256.472,300.29,257.361,300.29,258.3,300.265Z" transform="translate(-248.291 -261.771)" fill="#3d3935"/>
      <path id="Path_29" data-name="Path 29" d="M284.857,302.933c-.1.94-.178,2.413-.178,3.633a15.028,15.028,0,0,1-6.174,1.4,9.393,9.393,0,0,1-9.806-9.476c0-4.573,3.226-9.375,9.857-9.375a29.5,29.5,0,0,1,6.123.915c-.051.711-.076,1.728-.076,2.515s.025,1.321.05,1.754H284.4a5.428,5.428,0,0,0-5.641-4.5c-3.811,0-7.038,2.947-7.038,8.689,0,6.021,3.557,8.765,6.937,8.765a6.271,6.271,0,0,0,5.945-4.37Z" transform="translate(-251.649 -261.821)" fill="#3d3935"/>
      <path id="Path_30" data-name="Path 30" d="M304.162,307.709c-.534-.025-1.626-.05-2.491-.05-.94,0-2.262.025-2.82.05v-.254c.814-.1,1.093-.432,1.093-.965a10.814,10.814,0,0,0-.686-2.643l-.838-2.643c-.966-.025-1.906-.025-2.871-.025-1.067,0-1.829,0-2.617.025l-.533,1.423a11.994,11.994,0,0,0-1.016,3.557,1.145,1.145,0,0,0,1.067,1.27v.254c-.559-.025-1.55-.05-2.49-.05-.864,0-1.347.025-1.855.05v-.254c1.474-.432,1.982-1.245,3.581-5.436l5.056-13.212h.534l5.005,15.676c.686,2.135.991,2.744,1.881,2.973Zm-6.047-7.444-2.211-6.987-2.617,6.987c.661.025,1.3.025,2.262.025C296.286,300.29,297.175,300.29,298.115,300.265Z" transform="translate(-254.843 -261.771)" fill="#3d3935"/>
      <path id="Path_31" data-name="Path 31" d="M308.817,307.525c1.448-.228,1.524-.508,1.524-3.912V293.424c0-3.4-.151-3.684-1.524-3.937v-.254c.559.025,1.8.05,2.846.05,1.016,0,2.846-.025,3.48-.025,8.562,0,11.332,4.751,11.332,9.375,0,4.954-3.2,9.171-10.112,9.171-.94,0-3.176-.075-4.725-.075-.889,0-2.262.025-2.82.05Zm4.166-.686a16.38,16.38,0,0,0,3.1.28c4.548,0,7.394-2.338,7.394-8.436,0-7.368-4.141-8.74-8.028-8.74a9.925,9.925,0,0,0-2.465.254Z" transform="translate(-258.251 -261.841)" fill="#3d3935"/>
      <path id="Path_32" data-name="Path 32" d="M343.66,303.562c-.025,1.932-.127,2.82-.127,4.242-1.88-.05-3.481-.075-5.92-.075h-2.464c-1.068,0-2.337.025-2.8.05v-.254c1.321-.228,1.373-.711,1.373-3.506v-11c0-3.023-.128-3.3-1.4-3.531v-.254c.533.025,1.728.05,3.1.05,3.48,0,6.554,0,8.08-.05,0,0,.025.507.025,1.346,0,.864-.025,1.779-.076,2.566H343.2c-.609-2.846-1.651-3.023-4.522-3.023a10.617,10.617,0,0,0-2.312.127v7.521H338.1c2.211,0,2.922-.255,3.354-2.059h.253c-.025.763-.075,1.449-.075,2.465,0,1.042.05,1.728.075,2.465h-.253c-.382-1.957-1.373-2.059-3.354-2.059h-1.728v8.182a11.534,11.534,0,0,0,2.236.127c2.871,0,3.989-.178,4.8-3.328Z" transform="translate(-262.12 -261.841)" fill="#3d3935"/>
      <path id="Path_33" data-name="Path 33" d="M369.214,307.709c-.533-.025-1.55-.05-2.414-.05-.94,0-2.007.025-2.566.05v-.254c.813-.127,1.042-.406,1.042-1.042a15.2,15.2,0,0,0-.255-1.779l-1.752-10.213-5.489,13.237H357.5L351.76,294.4l-1.6,9.2a11.625,11.625,0,0,0-.2,1.906c0,1.092.356,1.728,1.347,1.956v.254c-.559-.025-1.575-.05-2.516-.05-.863,0-1.143.025-1.677.05v-.254c1.22-.355,1.626-1.473,2.084-4.039l2.617-14.609h.381l6.326,14.609,6.123-14.609h.381l2.719,15.93c.255,1.5.509,2.438,1.474,2.718Z" transform="translate(-264.552 -261.771)" fill="#3d3935"/>
      <path id="Path_34" data-name="Path 34" d="M382.632,307.779c-.559-.025-1.7-.05-2.617-.05s-2.007.025-2.566.05v-.254c1.042-.177,1.271-.508,1.271-2.947v-3l-4.853-9.628c-.915-1.8-1.3-2.338-2.058-2.465v-.254c.534.025,1.932.05,2.9.05s2.21-.025,2.769-.05v.254c-.736.127-1.143.33-1.143.94a4.393,4.393,0,0,0,.584,1.728l3.863,7.876,3.023-6.149c.889-1.8,1.22-2.515,1.22-3.226,0-.61-.254-1.017-1.093-1.169v-.254c.559.025,1.3.05,2.211.05.889,0,1.448-.025,1.982-.05v.254c-1.219.381-1.5.94-3.455,4.852l-3.3,6.58v3.659c0,2.439.2,2.77,1.27,2.947Z" transform="translate(-268.616 -261.841)" fill="#3d3935"/>
    </g>
    <line id="Line_2" data-name="Line 2" x2="120.1" transform="translate(0.269 195.556)" fill="#789f90" stroke="#999998" stroke-width="1.292"/>
    <path id="Path_35" data-name="Path 35" d="M310.721,119.293,337.4,92.618l18.555,18.554V83.244H265.492v27.929l18.554-18.554Z" transform="translate(-250.839 -83.244)" fill="#3d3935"/>
    <path id="Path_36" data-name="Path 36" d="M310.742,150.858l-26.676-26.675-18.451,18.452a76.819,76.819,0,0,0,4.323,21.915h0a76.777,76.777,0,0,0,9.177,17.936l31.626-31.627,31.588,31.588a75.427,75.427,0,0,0,9.215-17.9h0a76.818,76.818,0,0,0,4.323-21.915l-18.452-18.452Z" transform="translate(-250.859 -89.98)" fill="#646566"/>
    <path id="Path_37" data-name="Path 37" d="M295.621,205.891a196.3,196.3,0,0,0,20.058,16.578,160.3,160.3,0,0,0,19.989-16.647l-19.989-19.989Z" transform="translate(-255.797 -100.125)" fill="#999998"/>
    <g id="Group_6" data-name="Group 6" transform="translate(0 200.537)">
      <path id="Path_38" data-name="Path 38" d="M262.278,340.142c-.475-.023-1.45-.045-2.221-.045-.838,0-2.017.023-2.516.045v-.226c.725-.091.974-.386.974-.861a9.677,9.677,0,0,0-.612-2.358l-.749-2.357c-.861-.023-1.7-.023-2.561-.023-.952,0-1.632,0-2.334.023l-.476,1.269a10.692,10.692,0,0,0-.907,3.173,1.023,1.023,0,0,0,.952,1.134v.226c-.5-.023-1.383-.045-2.221-.045-.77,0-1.2.023-1.654.045v-.226c1.315-.386,1.768-1.111,3.2-4.851l4.511-11.786h.476l4.465,13.985c.612,1.9.885,2.449,1.678,2.652Zm-5.395-6.641-1.972-6.233-2.334,6.233c.589.023,1.156.023,2.017.023C255.251,333.524,256.044,333.524,256.883,333.5Z" transform="translate(-247.953 -323.279)" fill="#646566"/>
      <path id="Path_39" data-name="Path 39" d="M266.431,339.979c1.292-.2,1.359-.454,1.359-3.491V327.4c0-3.037-.135-3.286-1.359-3.513v-.226c.5.023,1.609.045,2.538.045.907,0,2.539-.023,3.105-.023,7.638,0,10.11,4.238,10.11,8.364,0,4.42-2.856,8.182-9.021,8.182-.839,0-2.834-.068-4.217-.068-.793,0-2.017.023-2.516.045Zm3.717-.612a14.58,14.58,0,0,0,2.765.249c4.057,0,6.6-2.085,6.6-7.525,0-6.573-3.694-7.8-7.162-7.8a8.836,8.836,0,0,0-2.2.227Z" transform="translate(-250.994 -323.341)" fill="#646566"/>
      <path id="Path_40" data-name="Path 40" d="M292.134,340.658l-5.508-14.573c-.612-1.61-1.042-1.949-1.745-2.2v-.226c.477.023,1.678.045,2.449.045.839,0,2.108-.023,2.607-.045v.226c-.794.114-1.065.408-1.065.906a4.69,4.69,0,0,0,.339,1.474l3.876,10.517,2.992-8.659a10.823,10.823,0,0,0,.748-3.037,1.1,1.1,0,0,0-1.019-1.2v-.226c.5.023,1.541.045,2.379.045.77,0,1.224-.023,1.655-.045v.226c-1.224.385-1.7,1.02-2.992,4.669l-4.308,12.1Z" transform="translate(-254.03 -323.341)" fill="#646566"/>
      <path id="Path_41" data-name="Path 41" d="M313.723,340.142c-.476-.023-1.451-.045-2.222-.045-.838,0-2.017.023-2.515.045v-.226c.725-.091.974-.386.974-.861a9.7,9.7,0,0,0-.612-2.358l-.748-2.357c-.861-.023-1.7-.023-2.561-.023-.952,0-1.632,0-2.334.023l-.476,1.269a10.693,10.693,0,0,0-.906,3.173,1.023,1.023,0,0,0,.952,1.134v.226c-.5-.023-1.384-.045-2.221-.045-.77,0-1.2.023-1.655.045v-.226c1.315-.386,1.768-1.111,3.2-4.851l4.511-11.786h.475l4.466,13.985c.612,1.9.884,2.449,1.678,2.652Zm-5.394-6.641-1.973-6.233-2.334,6.233c.589.023,1.156.023,2.017.023C306.7,333.524,307.49,333.524,308.329,333.5Z" transform="translate(-256.418 -323.279)" fill="#646566"/>
      <path id="Path_42" data-name="Path 42" d="M332.064,340.6c-3.739-4.147-8.114-8.908-12.148-13.146v1.791c0,9.451.045,10.2,1.632,10.675v.226c-.5-.023-1.179-.045-2.018-.045-.769,0-1.314.023-1.789.045v-.226c1.156-.386,1.36-1.043,1.36-5.893,0-4.1,0-7.366-.046-10.744h.272c3.877,4.307,8.182,8.976,12.059,13.124v-1.814c0-9.678-.091-10.29-1.632-10.766V323.6c.5.023,1.178.045,2.017.045.771,0,1.36-.023,1.836-.045v.226c-1.179.385-1.406.975-1.406,5.871,0,5.327,0,8.16.068,10.9Z" transform="translate(-259.437 -323.279)" fill="#646566"/>
      <path id="Path_43" data-name="Path 43" d="M352.8,335.88c-.09.839-.159,2.153-.159,3.242a13.418,13.418,0,0,1-5.508,1.246,8.38,8.38,0,0,1-8.749-8.455c0-4.08,2.879-8.364,8.795-8.364a26.409,26.409,0,0,1,5.462.816c-.045.635-.068,1.541-.068,2.244s.023,1.179.044,1.563H352.4a4.843,4.843,0,0,0-5.033-4.011c-3.4,0-6.278,2.629-6.278,7.751,0,5.373,3.173,7.82,6.187,7.82a5.594,5.594,0,0,0,5.3-3.9Z" transform="translate(-262.834 -323.324)" fill="#646566"/>
      <path id="Path_44" data-name="Path 44" d="M368.007,336.442c-.023,1.723-.114,2.516-.114,3.785-1.678-.045-3.105-.068-5.281-.068h-2.2c-.952,0-2.085.023-2.494.045v-.226c1.18-.2,1.225-.635,1.225-3.128v-9.814c0-2.7-.113-2.947-1.246-3.151v-.226c.475.023,1.541.045,2.765.045,3.1,0,5.847,0,7.207-.045,0,0,.023.454.023,1.2,0,.77-.023,1.586-.068,2.289H367.6c-.544-2.539-1.473-2.7-4.034-2.7a9.394,9.394,0,0,0-2.062.114v6.709h1.541c1.972,0,2.607-.227,2.992-1.836h.227c-.023.68-.068,1.292-.068,2.2,0,.93.044,1.541.068,2.2h-.227c-.34-1.745-1.224-1.836-2.992-1.836H361.5v7.3a10.191,10.191,0,0,0,1.994.114c2.561,0,3.558-.158,4.283-2.969Z" transform="translate(-266.045 -323.341)" fill="#646566"/>
      <path id="Path_45" data-name="Path 45" d="M372.224,339.979c1.292-.2,1.359-.454,1.359-3.491V327.4c0-3.037-.135-3.286-1.359-3.513v-.226c.5.023,1.609.045,2.538.045.906,0,2.539-.023,3.105-.023,7.638,0,10.11,4.238,10.11,8.364,0,4.42-2.856,8.182-9.021,8.182-.839,0-2.834-.068-4.217-.068-.793,0-2.017.023-2.516.045Zm3.717-.612a14.581,14.581,0,0,0,2.765.249c4.057,0,6.6-2.085,6.6-7.525,0-6.573-3.694-7.8-7.162-7.8a8.837,8.837,0,0,0-2.2.227Z" transform="translate(-268.402 -323.341)" fill="#646566"/>
    </g>
  </g>
</svg>
