<svg id="teoria_w_praktyce" xmlns="http://www.w3.org/2000/svg" xmlns:xlink="http://www.w3.org/1999/xlink" width="184.505" height="116.116" viewBox="0 0 184.505 116.116">
  <defs>
    <clipPath id="clip-path">
      <rect id="Rectangle_157" data-name="Rectangle 157" width="184.505" height="116.116" fill="none"/>
    </clipPath>
    <clipPath id="clip-path-3">
      <rect id="Rectangle_149" data-name="Rectangle 149" width="22.757" height="45.385" transform="translate(0 59.579)" fill="none"/>
    </clipPath>
    <clipPath id="clip-path-4">
      <rect id="Rectangle_146" data-name="Rectangle 146" width="22.694" height="22.694" transform="translate(0.063 59.579)" fill="none"/>
    </clipPath>
    <clipPath id="clip-path-5">
      <rect id="Rectangle_148" data-name="Rectangle 148" width="22.694" height="22.694" transform="translate(0 82.27)" fill="none"/>
    </clipPath>
    <clipPath id="clip-path-7">
      <rect id="Rectangle_153" data-name="Rectangle 153" width="44.905" height="29.583" transform="translate(124.345 29.583)" fill="none"/>
    </clipPath>
    <clipPath id="clip-path-8">
      <rect id="Rectangle_154" data-name="Rectangle 154" width="75.549" height="29.583" transform="translate(108.956)" fill="none"/>
    </clipPath>
    <clipPath id="clip-path-9">
      <rect id="Rectangle_156" data-name="Rectangle 156" width="91.559" height="91.559" transform="translate(34.476 6.013)" fill="none"/>
    </clipPath>
  </defs>
  <g id="Group_324" data-name="Group 324" clip-path="url(#clip-path)">
    <g id="Group_313" data-name="Group 313">
      <g id="Group_312" data-name="Group 312" clip-path="url(#clip-path)">
        <g id="Group_311" data-name="Group 311" opacity="0.7">
          <g id="Group_310" data-name="Group 310">
            <g id="Group_309" data-name="Group 309" clip-path="url(#clip-path-3)">
              <g id="Group_305" data-name="Group 305" opacity="0.4">
                <g id="Group_304" data-name="Group 304">
                  <g id="Group_303" data-name="Group 303" clip-path="url(#clip-path-4)">
                    <rect id="Rectangle_145" data-name="Rectangle 145" width="16.093" height="16.001" transform="translate(0.062 70.959) rotate(-45)" fill="#561436"/>
                  </g>
                </g>
              </g>
              <g id="Group_308" data-name="Group 308" opacity="0.4">
                <g id="Group_307" data-name="Group 307">
                  <g id="Group_306" data-name="Group 306" clip-path="url(#clip-path-5)">
                    <rect id="Rectangle_147" data-name="Rectangle 147" width="16.093" height="16.001" transform="translate(0 93.65) rotate(-45)" fill="#561436"/>
                  </g>
                </g>
              </g>
            </g>
          </g>
        </g>
      </g>
    </g>
    <rect id="Rectangle_151" data-name="Rectangle 151" width="42.01" height="2.284" transform="translate(62.397 113.832)" fill="#ab621a"/>
    <rect id="Rectangle_152" data-name="Rectangle 152" width="42.011" height="2.284" transform="translate(39.218 103.537)" fill="#ab621a"/>
    <g id="Group_321" data-name="Group 321">
      <g id="Group_320" data-name="Group 320" clip-path="url(#clip-path)">
        <g id="Group_316" data-name="Group 316" opacity="0.4">
          <g id="Group_315" data-name="Group 315">
            <g id="Group_314" data-name="Group 314" clip-path="url(#clip-path-7)">
              <path id="Path_7758" data-name="Path 7758" d="M146.8,43.844l15.322,15.322,7.13-7.131L146.8,29.583,124.345,52.035l7.13,7.131Z" fill="#d1934c"/>
            </g>
          </g>
        </g>
        <g id="Group_319" data-name="Group 319" opacity="0.4">
          <g id="Group_318" data-name="Group 318">
            <g id="Group_317" data-name="Group 317" clip-path="url(#clip-path-8)">
              <path id="Path_7759" data-name="Path 7759" d="M131.409,14.261l15.322,15.322,7.13-7.131L131.409,0,108.957,22.452l7.13,7.131Z" fill="#d1934c"/>
              <path id="Path_7760" data-name="Path 7760" d="M162.052,14.261l15.322,15.322,7.13-7.131L162.052,0,139.6,22.452l7.13,7.131Z" fill="#d1934c"/>
            </g>
          </g>
        </g>
        <path id="Path_7761" data-name="Path 7761" d="M94.9,75.214" fill="#ab621a"/>
        <path id="Path_7762" data-name="Path 7762" d="M104.674,75.214" fill="#ab621a"/>
      </g>
    </g>
    <g id="Group_323" data-name="Group 323">
      <g id="Group_322" data-name="Group 322" clip-path="url(#clip-path-9)">
        <path id="Path_7763" data-name="Path 7763" d="M98.919,96.139c-.765-1.231-1.061-3.457-2.864-4.3l-7.16-2.862a18.616,18.616,0,0,1-14.32,0l-7.161,2.864c-1.8.841-2.1,3.065-2.864,4.3" fill="none" stroke="#561436" stroke-linecap="round" stroke-linejoin="round" stroke-width="2"/>
        <path id="Path_7764" data-name="Path 7764" d="M86.031,84.682c3.989-2.659,3.619-4.368,4.093-8.238a10.6,10.6,0,0,0-.673-6.259,7.778,7.778,0,0,0-4.469-3.6,10.24,10.24,0,0,0-6.5,0,7.775,7.775,0,0,0-4.469,3.6,10.6,10.6,0,0,0-.674,6.259c.474,3.87.106,5.578,4.1,8.238" fill="none" stroke="#561436" stroke-linecap="round" stroke-linejoin="round" stroke-width="2"/>
        <path id="Path_7765" data-name="Path 7765" d="M124.7,96.139c-.766-1.231-1.062-3.457-2.866-4.3l-7.159-2.862a18.619,18.619,0,0,1-14.32,0" fill="none" stroke="#561436" stroke-linecap="round" stroke-linejoin="round" stroke-width="2"/>
        <path id="Path_7766" data-name="Path 7766" d="M111.808,84.682c3.989-2.659,3.62-4.368,4.094-8.238a10.611,10.611,0,0,0-.673-6.259,7.778,7.778,0,0,0-4.469-3.6,10.24,10.24,0,0,0-6.5,0,7.78,7.78,0,0,0-4.47,3.6,10.6,10.6,0,0,0-.673,6.259c.474,3.87.1,5.578,4.094,8.238" fill="none" stroke="#561436" stroke-linecap="round" stroke-linejoin="round" stroke-width="2"/>
        <path id="Path_7767" data-name="Path 7767" d="M65.982,7.351H124.7V57.473H73.142" fill="none" stroke="#561436" stroke-linecap="round" stroke-linejoin="round" stroke-width="2"/>
        <path id="Path_7768" data-name="Path 7768" d="M56.729,25.968c3.376-2.25,3.063-3.7,3.464-6.969a8.951,8.951,0,0,0-.57-5.292,6.559,6.559,0,0,0-3.782-3.042,8.626,8.626,0,0,0-5.495,0,6.563,6.563,0,0,0-3.787,3.041A8.967,8.967,0,0,0,45.989,19c.4,3.27.094,4.719,3.465,6.969" fill="none" stroke="#561436" stroke-linecap="round" stroke-linejoin="round" stroke-width="2"/>
        <path id="Path_7769" data-name="Path 7769" d="M40.206,68.93h0a4.309,4.309,0,0,1-4.3-4.3V40.289c0-4.3,1.062-4.892,2.865-5.728l7.16-2.865a18.619,18.619,0,0,0,14.321,0l27.515-3.931a2.863,2.863,0,0,1,3.183,2.141l.129.514a2.865,2.865,0,0,1-2.012,3.457L65.982,40.289,64.55,57.474V84.683" fill="none" stroke="#561436" stroke-linecap="round" stroke-linejoin="round" stroke-width="2"/>
        <line id="Line_38" data-name="Line 38" y2="19.62" transform="translate(41.95 65.806)" fill="none" stroke="#561436" stroke-linecap="round" stroke-linejoin="round" stroke-width="2"/>
        <line id="Line_39" data-name="Line 39" y1="4.671" x2="15.883" transform="translate(96.138 23.764)" fill="none" stroke="#ab621a" stroke-linecap="round" stroke-linejoin="round" stroke-width="2"/>
        <line id="Line_40" data-name="Line 40" y2="12.146" transform="translate(52.227 73.28)" fill="none" stroke="#561436" stroke-linecap="round" stroke-linejoin="round" stroke-width="2"/>
      </g>
    </g>
  </g>
</svg>
