<svg id="uczysz_sie_od_najlepszych" xmlns="http://www.w3.org/2000/svg" xmlns:xlink="http://www.w3.org/1999/xlink" width="152.603" height="112.475" viewBox="0 0 152.603 112.475">
  <defs>
    <clipPath id="clip-path">
      <rect id="Rectangle_144" data-name="Rectangle 144" width="152.603" height="112.475" fill="none"/>
    </clipPath>
    <clipPath id="clip-path-2">
      <rect id="Rectangle_137" data-name="Rectangle 137" width="152.603" height="112.475" transform="translate(0 0)" fill="none"/>
    </clipPath>
    <clipPath id="clip-path-3">
      <rect id="Rectangle_136" data-name="Rectangle 136" width="45.385" height="22.757" transform="translate(107.218 74.025)" fill="none"/>
    </clipPath>
    <clipPath id="clip-path-4">
      <rect id="Rectangle_133" data-name="Rectangle 133" width="22.694" height="22.694" transform="translate(129.909 74.088)" fill="none"/>
    </clipPath>
    <clipPath id="clip-path-5">
      <rect id="Rectangle_135" data-name="Rectangle 135" width="22.694" height="22.694" transform="translate(107.218 74.025)" fill="none"/>
    </clipPath>
    <clipPath id="clip-path-7">
      <rect id="Rectangle_140" data-name="Rectangle 140" width="44.905" height="29.583" transform="translate(15.389 31.571)" fill="none"/>
    </clipPath>
    <clipPath id="clip-path-8">
      <rect id="Rectangle_141" data-name="Rectangle 141" width="75.548" height="29.582" transform="translate(0 1.988)" fill="none"/>
    </clipPath>
    <clipPath id="clip-path-9">
      <rect id="Rectangle_143" data-name="Rectangle 143" width="111.68" height="92.723" transform="translate(28.85 0.001)" fill="none"/>
    </clipPath>
  </defs>
  <g id="Group_302" data-name="Group 302" clip-path="url(#clip-path)">
    <g id="Group_291" data-name="Group 291">
      <g id="Group_290" data-name="Group 290" clip-path="url(#clip-path-2)">
        <g id="Group_289" data-name="Group 289" opacity="0.7">
          <g id="Group_288" data-name="Group 288">
            <g id="Group_287" data-name="Group 287" clip-path="url(#clip-path-3)">
              <g id="Group_283" data-name="Group 283" opacity="0.4">
                <g id="Group_282" data-name="Group 282">
                  <g id="Group_281" data-name="Group 281" clip-path="url(#clip-path-4)">
                    <rect id="Rectangle_132" data-name="Rectangle 132" width="16.001" height="16.093" transform="translate(129.908 85.402) rotate(-45)" fill="#561436"/>
                  </g>
                </g>
              </g>
              <g id="Group_286" data-name="Group 286" opacity="0.4">
                <g id="Group_285" data-name="Group 285">
                  <g id="Group_284" data-name="Group 284" clip-path="url(#clip-path-5)">
                    <rect id="Rectangle_134" data-name="Rectangle 134" width="16.001" height="16.093" transform="translate(107.217 85.34) rotate(-45)" fill="#561436"/>
                  </g>
                </g>
              </g>
            </g>
          </g>
        </g>
      </g>
    </g>
    <rect id="Rectangle_138" data-name="Rectangle 138" width="42.01" height="2.284" transform="translate(35.972 110.191)" fill="#ab621a"/>
    <rect id="Rectangle_139" data-name="Rectangle 139" width="42.01" height="2.284" transform="translate(62.301 99.896)" fill="#ab621a"/>
    <g id="Group_299" data-name="Group 299">
      <g id="Group_298" data-name="Group 298" clip-path="url(#clip-path-2)">
        <g id="Group_294" data-name="Group 294" opacity="0.4">
          <g id="Group_293" data-name="Group 293">
            <g id="Group_292" data-name="Group 292" clip-path="url(#clip-path-7)">
              <path id="Path_7752" data-name="Path 7752" d="M37.841,45.832,53.163,61.154l7.13-7.131L37.841,31.571,15.389,54.023l7.13,7.131Z" fill="#d1934c"/>
            </g>
          </g>
        </g>
        <g id="Group_297" data-name="Group 297" opacity="0.4">
          <g id="Group_296" data-name="Group 296">
            <g id="Group_295" data-name="Group 295" clip-path="url(#clip-path-8)">
              <path id="Path_7753" data-name="Path 7753" d="M22.452,16.249,37.774,31.571,44.9,24.44,22.452,1.988,0,24.44l7.13,7.131Z" fill="#d1934c"/>
              <path id="Path_7754" data-name="Path 7754" d="M53.1,16.249,68.418,31.571l7.13-7.131L53.1,1.988,30.644,24.44l7.13,7.131Z" fill="#d1934c"/>
            </g>
          </g>
        </g>
      </g>
    </g>
    <g id="Group_301" data-name="Group 301">
      <g id="Group_300" data-name="Group 300" clip-path="url(#clip-path-9)">
        <path id="Path_7755" data-name="Path 7755" d="M67.885,42.435V32.313a8.292,8.292,0,0,1,8.267-8.267h17.08a8.3,8.3,0,0,1,8.266,8.267V42.435m-25.277-.406v-9.48m16.94,0v9.479m-34.075,33.4-7.567-4.568L40.1,78.08,43.27,64.47l-10.4-8.631L46.8,54.653,51.792,42.1l5.43,12.877,8.307.535M110.3,75.426l7.566-4.568,11.423,7.222-3.174-13.61,10.4-8.631-13.925-1.186-4.994-12.56L112.154,54.97l-8.307.535" fill="none" stroke="#561436" stroke-linecap="round" stroke-linejoin="round" stroke-width="2"/>
        <path id="Path_7756" data-name="Path 7756" d="M88.372,17.867c3.418-2.279,3.1-3.745,3.508-7.058a9.066,9.066,0,0,0-.578-5.36,6.649,6.649,0,0,0-3.83-3.08,8.755,8.755,0,0,0-5.564,0,6.649,6.649,0,0,0-3.83,3.08,9.07,9.07,0,0,0-.574,5.359c.406,3.315.093,4.78,3.508,7.058" fill="none" stroke="#561436" stroke-linecap="round" stroke-linejoin="round" stroke-width="2"/>
      </g>
    </g>
    <path id="Path_7757" data-name="Path 7757" d="M84.69,47.165l6.758,16.012,16.769,1.084L95.081,75.635l4.152,16.283L84.351,82.933l-14.2,8.982,3.94-16.927L61.16,64.253l17.316-1.477Z" fill="#ab621a"/>
  </g>
</svg>
